M48
; DRILL file {KiCad 6.0.5-a6ca702e91~116~ubuntu20.04.1} date Fri Feb 10 18:46:17 2023
; FORMAT={-:-/ absolute / metric / decimal}
; #@! TF.CreationDate,2023-02-10T18:46:17+05:30
; #@! TF.GenerationSoftware,Kicad,Pcbnew,6.0.5-a6ca702e91~116~ubuntu20.04.1
; #@! TF.FileFunction,MixedPlating,1,2
FMAT,2
METRIC
; #@! TA.AperFunction,Plated,PTH,ViaDrill
T1C0.300
; #@! TA.AperFunction,Plated,PTH,ComponentDrill
T2C0.550
; #@! TA.AperFunction,Plated,PTH,ComponentDrill
T3C0.850
; #@! TA.AperFunction,Plated,PTH,ComponentDrill
T4C1.000
; #@! TA.AperFunction,NonPlated,NPTH,ComponentDrill
T5C0.800
; #@! TA.AperFunction,NonPlated,NPTH,ComponentDrill
T6C0.900
; #@! TA.AperFunction,NonPlated,NPTH,ComponentDrill
T7C2.100
%
G90
G05
T1
X157.0Y-106.75
X157.75Y-117.0
X159.25Y-112.0
X161.0Y-112.25
X161.75Y-114.75
X162.0Y-119.0
X162.5Y-122.5
X162.75Y-110.75
X166.04Y-127.0
X166.25Y-116.25
X166.75Y-112.5
X167.5Y-127.0
X168.381Y-121.381
X170.05Y-123.5
X171.25Y-118.0
X171.45Y-123.5
X176.0Y-113.625
X179.75Y-122.5
X180.25Y-118.0
X180.25Y-119.0
X180.75Y-122.5
X184.25Y-113.5
X184.75Y-123.0
X187.25Y-122.5
T4
X160.18Y-100.5
X162.72Y-100.5
X164.2Y-129.25
X165.26Y-100.5
X166.74Y-129.25
X167.8Y-100.5
X169.28Y-129.25
X171.82Y-129.25
X174.18Y-100.5
X176.72Y-100.5
X179.26Y-100.5
X181.8Y-100.5
T5
X187.445Y-113.005
X187.445Y-118.005
T6
X153.67Y-107.5
X153.67Y-110.5
T7
X154.5Y-101.5
X154.5Y-128.5
X189.5Y-101.5
X189.5Y-128.5
T2
G00X189.87Y-111.63
M15
G01X190.52Y-111.63
M16
G05
G00X189.87Y-119.38
M15
G01X190.52Y-119.38
M16
G05
T3
G00X186.12Y-111.78
M15
G01X186.67Y-111.78
M16
G05
G00X186.12Y-119.23
M15
G01X186.67Y-119.23
M16
G05
T0
M30
