%TF.GenerationSoftware,KiCad,Pcbnew,6.0.5-a6ca702e91~116~ubuntu20.04.1*%
%TF.CreationDate,2023-02-10T18:46:25+05:30*%
%TF.ProjectId,STM32_kicad,53544d33-325f-46b6-9963-61642e6b6963,rev?*%
%TF.SameCoordinates,Original*%
%TF.FileFunction,Soldermask,Top*%
%TF.FilePolarity,Negative*%
%FSLAX46Y46*%
G04 Gerber Fmt 4.6, Leading zero omitted, Abs format (unit mm)*
G04 Created by KiCad (PCBNEW 6.0.5-a6ca702e91~116~ubuntu20.04.1) date 2023-02-10 18:46:25*
%MOMM*%
%LPD*%
G01*
G04 APERTURE LIST*
G04 Aperture macros list*
%AMRoundRect*
0 Rectangle with rounded corners*
0 $1 Rounding radius*
0 $2 $3 $4 $5 $6 $7 $8 $9 X,Y pos of 4 corners*
0 Add a 4 corners polygon primitive as box body*
4,1,4,$2,$3,$4,$5,$6,$7,$8,$9,$2,$3,0*
0 Add four circle primitives for the rounded corners*
1,1,$1+$1,$2,$3*
1,1,$1+$1,$4,$5*
1,1,$1+$1,$6,$7*
1,1,$1+$1,$8,$9*
0 Add four rect primitives between the rounded corners*
20,1,$1+$1,$2,$3,$4,$5,0*
20,1,$1+$1,$4,$5,$6,$7,0*
20,1,$1+$1,$6,$7,$8,$9,0*
20,1,$1+$1,$8,$9,$2,$3,0*%
G04 Aperture macros list end*
%ADD10RoundRect,0.147500X-0.172500X0.147500X-0.172500X-0.147500X0.172500X-0.147500X0.172500X0.147500X0*%
%ADD11R,1.500000X0.700000*%
%ADD12C,0.900000*%
%ADD13R,0.800000X1.000000*%
%ADD14C,2.100000*%
%ADD15R,1.200000X1.400000*%
%ADD16RoundRect,0.140000X0.170000X-0.140000X0.170000X0.140000X-0.170000X0.140000X-0.170000X-0.140000X0*%
%ADD17R,1.700000X1.700000*%
%ADD18O,1.700000X1.700000*%
%ADD19RoundRect,0.135000X-0.135000X-0.185000X0.135000X-0.185000X0.135000X0.185000X-0.135000X0.185000X0*%
%ADD20RoundRect,0.135000X-0.185000X0.135000X-0.185000X-0.135000X0.185000X-0.135000X0.185000X0.135000X0*%
%ADD21RoundRect,0.250000X-0.250000X-0.475000X0.250000X-0.475000X0.250000X0.475000X-0.250000X0.475000X0*%
%ADD22RoundRect,0.140000X0.140000X0.170000X-0.140000X0.170000X-0.140000X-0.170000X0.140000X-0.170000X0*%
%ADD23RoundRect,0.250000X0.475000X-0.250000X0.475000X0.250000X-0.475000X0.250000X-0.475000X-0.250000X0*%
%ADD24RoundRect,0.140000X-0.170000X0.140000X-0.170000X-0.140000X0.170000X-0.140000X0.170000X0.140000X0*%
%ADD25R,1.500000X2.000000*%
%ADD26R,3.800000X2.000000*%
%ADD27RoundRect,0.218750X-0.256250X0.218750X-0.256250X-0.218750X0.256250X-0.218750X0.256250X0.218750X0*%
%ADD28RoundRect,0.140000X-0.140000X-0.170000X0.140000X-0.170000X0.140000X0.170000X-0.140000X0.170000X0*%
%ADD29RoundRect,0.225000X-0.225000X-0.250000X0.225000X-0.250000X0.225000X0.250000X-0.225000X0.250000X0*%
%ADD30RoundRect,0.135000X0.135000X0.185000X-0.135000X0.185000X-0.135000X-0.185000X0.135000X-0.185000X0*%
%ADD31RoundRect,0.075000X-0.662500X-0.075000X0.662500X-0.075000X0.662500X0.075000X-0.662500X0.075000X0*%
%ADD32RoundRect,0.075000X-0.075000X-0.662500X0.075000X-0.662500X0.075000X0.662500X-0.075000X0.662500X0*%
%ADD33O,2.000000X1.450000*%
%ADD34O,1.800000X1.150000*%
%ADD35R,1.300000X0.450000*%
%ADD36O,0.800000X0.800000*%
G04 APERTURE END LIST*
D10*
%TO.C,D1*%
X186250000Y-124015000D03*
X186250000Y-124985000D03*
%TD*%
D11*
%TO.C,SW1*%
X155430000Y-111250000D03*
X155430000Y-109750000D03*
X155430000Y-106750000D03*
D12*
X153670000Y-110500000D03*
D13*
X154780000Y-112650000D03*
X152570000Y-105350000D03*
X152570000Y-112650000D03*
X154780000Y-105350000D03*
D12*
X153670000Y-107500000D03*
%TD*%
D14*
%TO.C,H4*%
X154500000Y-101500000D03*
%TD*%
%TO.C,H3*%
X189500000Y-101500000D03*
%TD*%
%TO.C,H2*%
X189500000Y-128500000D03*
%TD*%
%TO.C,H1*%
X154500000Y-128500000D03*
%TD*%
D15*
%TO.C,Y1*%
X157650000Y-113500000D03*
X157650000Y-115700000D03*
X159350000Y-115700000D03*
X159350000Y-113500000D03*
%TD*%
D16*
%TO.C,C8*%
X161000000Y-116080000D03*
X161000000Y-115120000D03*
%TD*%
D17*
%TO.C,J3*%
X181800000Y-100500000D03*
D18*
X179260000Y-100500000D03*
X176720000Y-100500000D03*
X174180000Y-100500000D03*
%TD*%
D16*
%TO.C,C6*%
X163000000Y-112480000D03*
X163000000Y-111520000D03*
%TD*%
D19*
%TO.C,R4*%
X158490000Y-106000000D03*
X159510000Y-106000000D03*
%TD*%
D16*
%TO.C,C4*%
X161000000Y-114060000D03*
X161000000Y-113100000D03*
%TD*%
D20*
%TO.C,R5*%
X178750000Y-112250000D03*
X178750000Y-111230000D03*
%TD*%
D21*
%TO.C,C1*%
X178950000Y-118500000D03*
X177050000Y-118500000D03*
%TD*%
D22*
%TO.C,C9*%
X171520000Y-121500000D03*
X172480000Y-121500000D03*
%TD*%
D23*
%TO.C,C2*%
X183000000Y-123050000D03*
X183000000Y-124950000D03*
%TD*%
D24*
%TO.C,C7*%
X175000000Y-113480000D03*
X175000000Y-112520000D03*
%TD*%
D25*
%TO.C,U1*%
X175700000Y-120850000D03*
D26*
X178000000Y-127150000D03*
D25*
X178000000Y-120850000D03*
X180300000Y-120850000D03*
%TD*%
D19*
%TO.C,R1*%
X185990000Y-121500000D03*
X187010000Y-121500000D03*
%TD*%
D22*
%TO.C,C12*%
X162960000Y-120000000D03*
X162000000Y-120000000D03*
%TD*%
D27*
%TO.C,FB1*%
X164500000Y-120000000D03*
X164500000Y-121575000D03*
%TD*%
D28*
%TO.C,C13*%
X162040000Y-121500000D03*
X163000000Y-121500000D03*
%TD*%
D17*
%TO.C,J1*%
X164200000Y-129250000D03*
D18*
X166740000Y-129250000D03*
X169280000Y-129250000D03*
X171820000Y-129250000D03*
%TD*%
D28*
%TO.C,C10*%
X166980000Y-109500000D03*
X166020000Y-109500000D03*
%TD*%
D16*
%TO.C,C11*%
X163000000Y-116980000D03*
X163000000Y-116020000D03*
%TD*%
D29*
%TO.C,C3*%
X165725000Y-107000000D03*
X167275000Y-107000000D03*
%TD*%
D18*
%TO.C,J2*%
X160180000Y-100500000D03*
X162720000Y-100500000D03*
X165260000Y-100500000D03*
D17*
X167800000Y-100500000D03*
%TD*%
D30*
%TO.C,R2*%
X168010000Y-124750000D03*
X166990000Y-124750000D03*
%TD*%
D31*
%TO.C,U2*%
X164837500Y-112750000D03*
X164837500Y-113250000D03*
X164837500Y-113750000D03*
X164837500Y-114250000D03*
X164837500Y-114750000D03*
X164837500Y-115250000D03*
X164837500Y-115750000D03*
X164837500Y-116250000D03*
X164837500Y-116750000D03*
X164837500Y-117250000D03*
X164837500Y-117750000D03*
X164837500Y-118250000D03*
D32*
X166250000Y-119662500D03*
X166750000Y-119662500D03*
X167250000Y-119662500D03*
X167750000Y-119662500D03*
X168250000Y-119662500D03*
X168750000Y-119662500D03*
X169250000Y-119662500D03*
X169750000Y-119662500D03*
X170250000Y-119662500D03*
X170750000Y-119662500D03*
X171250000Y-119662500D03*
X171750000Y-119662500D03*
D31*
X173162500Y-118250000D03*
X173162500Y-117750000D03*
X173162500Y-117250000D03*
X173162500Y-116750000D03*
X173162500Y-116250000D03*
X173162500Y-115750000D03*
X173162500Y-115250000D03*
X173162500Y-114750000D03*
X173162500Y-114250000D03*
X173162500Y-113750000D03*
X173162500Y-113250000D03*
X173162500Y-112750000D03*
D32*
X171750000Y-111337500D03*
X171250000Y-111337500D03*
X170750000Y-111337500D03*
X170250000Y-111337500D03*
X169750000Y-111337500D03*
X169250000Y-111337500D03*
X168750000Y-111337500D03*
X168250000Y-111337500D03*
X167750000Y-111337500D03*
X167250000Y-111337500D03*
X166750000Y-111337500D03*
X166250000Y-111337500D03*
%TD*%
D19*
%TO.C,R3*%
X170510000Y-124750000D03*
X169490000Y-124750000D03*
%TD*%
D28*
%TO.C,C5*%
X167480000Y-121500000D03*
X166520000Y-121500000D03*
%TD*%
D33*
%TO.C,J4*%
X186395000Y-119230000D03*
D34*
X190195000Y-119380000D03*
X190195000Y-111630000D03*
D33*
X186395000Y-111780000D03*
D35*
X186345000Y-114205000D03*
X186345000Y-114855000D03*
X186345000Y-115505000D03*
X186345000Y-116155000D03*
X186345000Y-116805000D03*
D36*
X187445000Y-118005000D03*
X187445000Y-113005000D03*
%TD*%
M02*
