%TF.GenerationSoftware,KiCad,Pcbnew,6.0.5-a6ca702e91~116~ubuntu20.04.1*%
%TF.CreationDate,2023-02-10T18:46:25+05:30*%
%TF.ProjectId,STM32_kicad,53544d33-325f-46b6-9963-61642e6b6963,rev?*%
%TF.SameCoordinates,Original*%
%TF.FileFunction,Legend,Top*%
%TF.FilePolarity,Positive*%
%FSLAX46Y46*%
G04 Gerber Fmt 4.6, Leading zero omitted, Abs format (unit mm)*
G04 Created by KiCad (PCBNEW 6.0.5-a6ca702e91~116~ubuntu20.04.1) date 2023-02-10 18:46:25*
%MOMM*%
%LPD*%
G01*
G04 APERTURE LIST*
%ADD10C,0.250000*%
%ADD11C,0.150000*%
%ADD12C,0.100000*%
%ADD13C,0.120000*%
G04 APERTURE END LIST*
D10*
X173750000Y-107904761D02*
X173892857Y-107952380D01*
X174130952Y-107952380D01*
X174226190Y-107904761D01*
X174273809Y-107857142D01*
X174321428Y-107761904D01*
X174321428Y-107666666D01*
X174273809Y-107571428D01*
X174226190Y-107523809D01*
X174130952Y-107476190D01*
X173940476Y-107428571D01*
X173845238Y-107380952D01*
X173797619Y-107333333D01*
X173750000Y-107238095D01*
X173750000Y-107142857D01*
X173797619Y-107047619D01*
X173845238Y-107000000D01*
X173940476Y-106952380D01*
X174178571Y-106952380D01*
X174321428Y-107000000D01*
X174607142Y-106952380D02*
X175178571Y-106952380D01*
X174892857Y-107952380D02*
X174892857Y-106952380D01*
X175511904Y-107952380D02*
X175511904Y-106952380D01*
X175845238Y-107666666D01*
X176178571Y-106952380D01*
X176178571Y-107952380D01*
X176654761Y-107571428D02*
X177416666Y-107571428D01*
X177797619Y-106952380D02*
X178416666Y-106952380D01*
X178083333Y-107333333D01*
X178226190Y-107333333D01*
X178321428Y-107380952D01*
X178369047Y-107428571D01*
X178416666Y-107523809D01*
X178416666Y-107761904D01*
X178369047Y-107857142D01*
X178321428Y-107904761D01*
X178226190Y-107952380D01*
X177940476Y-107952380D01*
X177845238Y-107904761D01*
X177797619Y-107857142D01*
X178797619Y-107047619D02*
X178845238Y-107000000D01*
X178940476Y-106952380D01*
X179178571Y-106952380D01*
X179273809Y-107000000D01*
X179321428Y-107047619D01*
X179369047Y-107142857D01*
X179369047Y-107238095D01*
X179321428Y-107380952D01*
X178750000Y-107952380D01*
X179369047Y-107952380D01*
X180892857Y-107428571D02*
X181035714Y-107476190D01*
X181083333Y-107523809D01*
X181130952Y-107619047D01*
X181130952Y-107761904D01*
X181083333Y-107857142D01*
X181035714Y-107904761D01*
X180940476Y-107952380D01*
X180559523Y-107952380D01*
X180559523Y-106952380D01*
X180892857Y-106952380D01*
X180988095Y-107000000D01*
X181035714Y-107047619D01*
X181083333Y-107142857D01*
X181083333Y-107238095D01*
X181035714Y-107333333D01*
X180988095Y-107380952D01*
X180892857Y-107428571D01*
X180559523Y-107428571D01*
X181988095Y-107952380D02*
X181988095Y-107428571D01*
X181940476Y-107333333D01*
X181845238Y-107285714D01*
X181654761Y-107285714D01*
X181559523Y-107333333D01*
X181988095Y-107904761D02*
X181892857Y-107952380D01*
X181654761Y-107952380D01*
X181559523Y-107904761D01*
X181511904Y-107809523D01*
X181511904Y-107714285D01*
X181559523Y-107619047D01*
X181654761Y-107571428D01*
X181892857Y-107571428D01*
X181988095Y-107523809D01*
X182416666Y-107904761D02*
X182511904Y-107952380D01*
X182702380Y-107952380D01*
X182797619Y-107904761D01*
X182845238Y-107809523D01*
X182845238Y-107761904D01*
X182797619Y-107666666D01*
X182702380Y-107619047D01*
X182559523Y-107619047D01*
X182464285Y-107571428D01*
X182416666Y-107476190D01*
X182416666Y-107428571D01*
X182464285Y-107333333D01*
X182559523Y-107285714D01*
X182702380Y-107285714D01*
X182797619Y-107333333D01*
X183273809Y-107952380D02*
X183273809Y-107285714D01*
X183273809Y-106952380D02*
X183226190Y-107000000D01*
X183273809Y-107047619D01*
X183321428Y-107000000D01*
X183273809Y-106952380D01*
X183273809Y-107047619D01*
X184178571Y-107904761D02*
X184083333Y-107952380D01*
X183892857Y-107952380D01*
X183797619Y-107904761D01*
X183750000Y-107857142D01*
X183702380Y-107761904D01*
X183702380Y-107476190D01*
X183750000Y-107380952D01*
X183797619Y-107333333D01*
X183892857Y-107285714D01*
X184083333Y-107285714D01*
X184178571Y-107333333D01*
X185702380Y-107428571D02*
X185845238Y-107476190D01*
X185892857Y-107523809D01*
X185940476Y-107619047D01*
X185940476Y-107761904D01*
X185892857Y-107857142D01*
X185845238Y-107904761D01*
X185750000Y-107952380D01*
X185369047Y-107952380D01*
X185369047Y-106952380D01*
X185702380Y-106952380D01*
X185797619Y-107000000D01*
X185845238Y-107047619D01*
X185892857Y-107142857D01*
X185892857Y-107238095D01*
X185845238Y-107333333D01*
X185797619Y-107380952D01*
X185702380Y-107428571D01*
X185369047Y-107428571D01*
X186797619Y-107285714D02*
X186797619Y-107952380D01*
X186369047Y-107285714D02*
X186369047Y-107809523D01*
X186416666Y-107904761D01*
X186511904Y-107952380D01*
X186654761Y-107952380D01*
X186750000Y-107904761D01*
X186797619Y-107857142D01*
X187273809Y-107952380D02*
X187273809Y-107285714D01*
X187273809Y-106952380D02*
X187226190Y-107000000D01*
X187273809Y-107047619D01*
X187321428Y-107000000D01*
X187273809Y-106952380D01*
X187273809Y-107047619D01*
X187892857Y-107952380D02*
X187797619Y-107904761D01*
X187750000Y-107809523D01*
X187750000Y-106952380D01*
X188702380Y-107952380D02*
X188702380Y-106952380D01*
X188702380Y-107904761D02*
X188607142Y-107952380D01*
X188416666Y-107952380D01*
X188321428Y-107904761D01*
X188273809Y-107857142D01*
X188226190Y-107761904D01*
X188226190Y-107476190D01*
X188273809Y-107380952D01*
X188321428Y-107333333D01*
X188416666Y-107285714D01*
X188607142Y-107285714D01*
X188702380Y-107333333D01*
D11*
X152642857Y-114928571D02*
X152785714Y-114976190D01*
X152833333Y-115023809D01*
X152880952Y-115119047D01*
X152880952Y-115261904D01*
X152833333Y-115357142D01*
X152785714Y-115404761D01*
X152690476Y-115452380D01*
X152309523Y-115452380D01*
X152309523Y-114452380D01*
X152642857Y-114452380D01*
X152738095Y-114500000D01*
X152785714Y-114547619D01*
X152833333Y-114642857D01*
X152833333Y-114738095D01*
X152785714Y-114833333D01*
X152738095Y-114880952D01*
X152642857Y-114928571D01*
X152309523Y-114928571D01*
X153500000Y-114452380D02*
X153690476Y-114452380D01*
X153785714Y-114500000D01*
X153880952Y-114595238D01*
X153928571Y-114785714D01*
X153928571Y-115119047D01*
X153880952Y-115309523D01*
X153785714Y-115404761D01*
X153690476Y-115452380D01*
X153500000Y-115452380D01*
X153404761Y-115404761D01*
X153309523Y-115309523D01*
X153261904Y-115119047D01*
X153261904Y-114785714D01*
X153309523Y-114595238D01*
X153404761Y-114500000D01*
X153500000Y-114452380D01*
X154547619Y-114452380D02*
X154738095Y-114452380D01*
X154833333Y-114500000D01*
X154928571Y-114595238D01*
X154976190Y-114785714D01*
X154976190Y-115119047D01*
X154928571Y-115309523D01*
X154833333Y-115404761D01*
X154738095Y-115452380D01*
X154547619Y-115452380D01*
X154452380Y-115404761D01*
X154357142Y-115309523D01*
X154309523Y-115119047D01*
X154309523Y-114785714D01*
X154357142Y-114595238D01*
X154452380Y-114500000D01*
X154547619Y-114452380D01*
X155261904Y-114452380D02*
X155833333Y-114452380D01*
X155547619Y-115452380D02*
X155547619Y-114452380D01*
X160023809Y-130202380D02*
X160023809Y-129202380D01*
X160452380Y-129297619D02*
X160500000Y-129250000D01*
X160595238Y-129202380D01*
X160833333Y-129202380D01*
X160928571Y-129250000D01*
X160976190Y-129297619D01*
X161023809Y-129392857D01*
X161023809Y-129488095D01*
X160976190Y-129630952D01*
X160404761Y-130202380D01*
X161023809Y-130202380D01*
X162023809Y-130107142D02*
X161976190Y-130154761D01*
X161833333Y-130202380D01*
X161738095Y-130202380D01*
X161595238Y-130154761D01*
X161500000Y-130059523D01*
X161452380Y-129964285D01*
X161404761Y-129773809D01*
X161404761Y-129630952D01*
X161452380Y-129440476D01*
X161500000Y-129345238D01*
X161595238Y-129250000D01*
X161738095Y-129202380D01*
X161833333Y-129202380D01*
X161976190Y-129250000D01*
X162023809Y-129297619D01*
X158154761Y-102452380D02*
X158154761Y-103261904D01*
X158202380Y-103357142D01*
X158250000Y-103404761D01*
X158345238Y-103452380D01*
X158535714Y-103452380D01*
X158630952Y-103404761D01*
X158678571Y-103357142D01*
X158726190Y-103261904D01*
X158726190Y-102452380D01*
X159154761Y-103166666D02*
X159630952Y-103166666D01*
X159059523Y-103452380D02*
X159392857Y-102452380D01*
X159726190Y-103452380D01*
X160630952Y-103452380D02*
X160297619Y-102976190D01*
X160059523Y-103452380D02*
X160059523Y-102452380D01*
X160440476Y-102452380D01*
X160535714Y-102500000D01*
X160583333Y-102547619D01*
X160630952Y-102642857D01*
X160630952Y-102785714D01*
X160583333Y-102880952D01*
X160535714Y-102928571D01*
X160440476Y-102976190D01*
X160059523Y-102976190D01*
X160916666Y-102452380D02*
X161488095Y-102452380D01*
X161202380Y-103452380D02*
X161202380Y-102452380D01*
X183892857Y-100654761D02*
X184035714Y-100702380D01*
X184273809Y-100702380D01*
X184369047Y-100654761D01*
X184416666Y-100607142D01*
X184464285Y-100511904D01*
X184464285Y-100416666D01*
X184416666Y-100321428D01*
X184369047Y-100273809D01*
X184273809Y-100226190D01*
X184083333Y-100178571D01*
X183988095Y-100130952D01*
X183940476Y-100083333D01*
X183892857Y-99988095D01*
X183892857Y-99892857D01*
X183940476Y-99797619D01*
X183988095Y-99750000D01*
X184083333Y-99702380D01*
X184321428Y-99702380D01*
X184464285Y-99750000D01*
X184797619Y-99702380D02*
X185035714Y-100702380D01*
X185226190Y-99988095D01*
X185416666Y-100702380D01*
X185654761Y-99702380D01*
X186035714Y-100702380D02*
X186035714Y-99702380D01*
X186273809Y-99702380D01*
X186416666Y-99750000D01*
X186511904Y-99845238D01*
X186559523Y-99940476D01*
X186607142Y-100130952D01*
X186607142Y-100273809D01*
X186559523Y-100464285D01*
X186511904Y-100559523D01*
X186416666Y-100654761D01*
X186273809Y-100702380D01*
X186035714Y-100702380D01*
%TO.C,D1*%
X187872380Y-125238095D02*
X186872380Y-125238095D01*
X186872380Y-125000000D01*
X186920000Y-124857142D01*
X187015238Y-124761904D01*
X187110476Y-124714285D01*
X187300952Y-124666666D01*
X187443809Y-124666666D01*
X187634285Y-124714285D01*
X187729523Y-124761904D01*
X187824761Y-124857142D01*
X187872380Y-125000000D01*
X187872380Y-125238095D01*
X187872380Y-123714285D02*
X187872380Y-124285714D01*
X187872380Y-124000000D02*
X186872380Y-124000000D01*
X187015238Y-124095238D01*
X187110476Y-124190476D01*
X187158095Y-124285714D01*
%TO.C,Y1*%
X157023809Y-118226190D02*
X157023809Y-118702380D01*
X156690476Y-117702380D02*
X157023809Y-118226190D01*
X157357142Y-117702380D01*
X158214285Y-118702380D02*
X157642857Y-118702380D01*
X157928571Y-118702380D02*
X157928571Y-117702380D01*
X157833333Y-117845238D01*
X157738095Y-117940476D01*
X157642857Y-117988095D01*
%TO.C,C8*%
X160083333Y-117607142D02*
X160035714Y-117654761D01*
X159892857Y-117702380D01*
X159797619Y-117702380D01*
X159654761Y-117654761D01*
X159559523Y-117559523D01*
X159511904Y-117464285D01*
X159464285Y-117273809D01*
X159464285Y-117130952D01*
X159511904Y-116940476D01*
X159559523Y-116845238D01*
X159654761Y-116750000D01*
X159797619Y-116702380D01*
X159892857Y-116702380D01*
X160035714Y-116750000D01*
X160083333Y-116797619D01*
X160654761Y-117130952D02*
X160559523Y-117083333D01*
X160511904Y-117035714D01*
X160464285Y-116940476D01*
X160464285Y-116892857D01*
X160511904Y-116797619D01*
X160559523Y-116750000D01*
X160654761Y-116702380D01*
X160845238Y-116702380D01*
X160940476Y-116750000D01*
X160988095Y-116797619D01*
X161035714Y-116892857D01*
X161035714Y-116940476D01*
X160988095Y-117035714D01*
X160940476Y-117083333D01*
X160845238Y-117130952D01*
X160654761Y-117130952D01*
X160559523Y-117178571D01*
X160511904Y-117226190D01*
X160464285Y-117321428D01*
X160464285Y-117511904D01*
X160511904Y-117607142D01*
X160559523Y-117654761D01*
X160654761Y-117702380D01*
X160845238Y-117702380D01*
X160940476Y-117654761D01*
X160988095Y-117607142D01*
X161035714Y-117511904D01*
X161035714Y-117321428D01*
X160988095Y-117226190D01*
X160940476Y-117178571D01*
X160845238Y-117130952D01*
%TO.C,C6*%
X164333333Y-111607142D02*
X164285714Y-111654761D01*
X164142857Y-111702380D01*
X164047619Y-111702380D01*
X163904761Y-111654761D01*
X163809523Y-111559523D01*
X163761904Y-111464285D01*
X163714285Y-111273809D01*
X163714285Y-111130952D01*
X163761904Y-110940476D01*
X163809523Y-110845238D01*
X163904761Y-110750000D01*
X164047619Y-110702380D01*
X164142857Y-110702380D01*
X164285714Y-110750000D01*
X164333333Y-110797619D01*
X165190476Y-110702380D02*
X165000000Y-110702380D01*
X164904761Y-110750000D01*
X164857142Y-110797619D01*
X164761904Y-110940476D01*
X164714285Y-111130952D01*
X164714285Y-111511904D01*
X164761904Y-111607142D01*
X164809523Y-111654761D01*
X164904761Y-111702380D01*
X165095238Y-111702380D01*
X165190476Y-111654761D01*
X165238095Y-111607142D01*
X165285714Y-111511904D01*
X165285714Y-111273809D01*
X165238095Y-111178571D01*
X165190476Y-111130952D01*
X165095238Y-111083333D01*
X164904761Y-111083333D01*
X164809523Y-111130952D01*
X164761904Y-111178571D01*
X164714285Y-111273809D01*
%TO.C,R4*%
X158833333Y-105282380D02*
X158500000Y-104806190D01*
X158261904Y-105282380D02*
X158261904Y-104282380D01*
X158642857Y-104282380D01*
X158738095Y-104330000D01*
X158785714Y-104377619D01*
X158833333Y-104472857D01*
X158833333Y-104615714D01*
X158785714Y-104710952D01*
X158738095Y-104758571D01*
X158642857Y-104806190D01*
X158261904Y-104806190D01*
X159690476Y-104615714D02*
X159690476Y-105282380D01*
X159452380Y-104234761D02*
X159214285Y-104949047D01*
X159833333Y-104949047D01*
%TO.C,C4*%
X159833333Y-111107142D02*
X159785714Y-111154761D01*
X159642857Y-111202380D01*
X159547619Y-111202380D01*
X159404761Y-111154761D01*
X159309523Y-111059523D01*
X159261904Y-110964285D01*
X159214285Y-110773809D01*
X159214285Y-110630952D01*
X159261904Y-110440476D01*
X159309523Y-110345238D01*
X159404761Y-110250000D01*
X159547619Y-110202380D01*
X159642857Y-110202380D01*
X159785714Y-110250000D01*
X159833333Y-110297619D01*
X160690476Y-110535714D02*
X160690476Y-111202380D01*
X160452380Y-110154761D02*
X160214285Y-110869047D01*
X160833333Y-110869047D01*
%TO.C,R5*%
X180372380Y-111906666D02*
X179896190Y-112240000D01*
X180372380Y-112478095D02*
X179372380Y-112478095D01*
X179372380Y-112097142D01*
X179420000Y-112001904D01*
X179467619Y-111954285D01*
X179562857Y-111906666D01*
X179705714Y-111906666D01*
X179800952Y-111954285D01*
X179848571Y-112001904D01*
X179896190Y-112097142D01*
X179896190Y-112478095D01*
X179372380Y-111001904D02*
X179372380Y-111478095D01*
X179848571Y-111525714D01*
X179800952Y-111478095D01*
X179753333Y-111382857D01*
X179753333Y-111144761D01*
X179800952Y-111049523D01*
X179848571Y-111001904D01*
X179943809Y-110954285D01*
X180181904Y-110954285D01*
X180277142Y-111001904D01*
X180324761Y-111049523D01*
X180372380Y-111144761D01*
X180372380Y-111382857D01*
X180324761Y-111478095D01*
X180277142Y-111525714D01*
%TO.C,C1*%
X174833333Y-118857142D02*
X174785714Y-118904761D01*
X174642857Y-118952380D01*
X174547619Y-118952380D01*
X174404761Y-118904761D01*
X174309523Y-118809523D01*
X174261904Y-118714285D01*
X174214285Y-118523809D01*
X174214285Y-118380952D01*
X174261904Y-118190476D01*
X174309523Y-118095238D01*
X174404761Y-118000000D01*
X174547619Y-117952380D01*
X174642857Y-117952380D01*
X174785714Y-118000000D01*
X174833333Y-118047619D01*
X175785714Y-118952380D02*
X175214285Y-118952380D01*
X175500000Y-118952380D02*
X175500000Y-117952380D01*
X175404761Y-118095238D01*
X175309523Y-118190476D01*
X175214285Y-118238095D01*
%TO.C,C9*%
X171833333Y-123017142D02*
X171785714Y-123064761D01*
X171642857Y-123112380D01*
X171547619Y-123112380D01*
X171404761Y-123064761D01*
X171309523Y-122969523D01*
X171261904Y-122874285D01*
X171214285Y-122683809D01*
X171214285Y-122540952D01*
X171261904Y-122350476D01*
X171309523Y-122255238D01*
X171404761Y-122160000D01*
X171547619Y-122112380D01*
X171642857Y-122112380D01*
X171785714Y-122160000D01*
X171833333Y-122207619D01*
X172309523Y-123112380D02*
X172500000Y-123112380D01*
X172595238Y-123064761D01*
X172642857Y-123017142D01*
X172738095Y-122874285D01*
X172785714Y-122683809D01*
X172785714Y-122302857D01*
X172738095Y-122207619D01*
X172690476Y-122160000D01*
X172595238Y-122112380D01*
X172404761Y-122112380D01*
X172309523Y-122160000D01*
X172261904Y-122207619D01*
X172214285Y-122302857D01*
X172214285Y-122540952D01*
X172261904Y-122636190D01*
X172309523Y-122683809D01*
X172404761Y-122731428D01*
X172595238Y-122731428D01*
X172690476Y-122683809D01*
X172738095Y-122636190D01*
X172785714Y-122540952D01*
%TO.C,C2*%
X182833333Y-121857142D02*
X182785714Y-121904761D01*
X182642857Y-121952380D01*
X182547619Y-121952380D01*
X182404761Y-121904761D01*
X182309523Y-121809523D01*
X182261904Y-121714285D01*
X182214285Y-121523809D01*
X182214285Y-121380952D01*
X182261904Y-121190476D01*
X182309523Y-121095238D01*
X182404761Y-121000000D01*
X182547619Y-120952380D01*
X182642857Y-120952380D01*
X182785714Y-121000000D01*
X182833333Y-121047619D01*
X183214285Y-121047619D02*
X183261904Y-121000000D01*
X183357142Y-120952380D01*
X183595238Y-120952380D01*
X183690476Y-121000000D01*
X183738095Y-121047619D01*
X183785714Y-121142857D01*
X183785714Y-121238095D01*
X183738095Y-121380952D01*
X183166666Y-121952380D01*
X183785714Y-121952380D01*
%TO.C,C7*%
X176583333Y-113107142D02*
X176535714Y-113154761D01*
X176392857Y-113202380D01*
X176297619Y-113202380D01*
X176154761Y-113154761D01*
X176059523Y-113059523D01*
X176011904Y-112964285D01*
X175964285Y-112773809D01*
X175964285Y-112630952D01*
X176011904Y-112440476D01*
X176059523Y-112345238D01*
X176154761Y-112250000D01*
X176297619Y-112202380D01*
X176392857Y-112202380D01*
X176535714Y-112250000D01*
X176583333Y-112297619D01*
X176916666Y-112202380D02*
X177583333Y-112202380D01*
X177154761Y-113202380D01*
%TO.C,U1*%
X173988095Y-126452380D02*
X173988095Y-127261904D01*
X174035714Y-127357142D01*
X174083333Y-127404761D01*
X174178571Y-127452380D01*
X174369047Y-127452380D01*
X174464285Y-127404761D01*
X174511904Y-127357142D01*
X174559523Y-127261904D01*
X174559523Y-126452380D01*
X175559523Y-127452380D02*
X174988095Y-127452380D01*
X175273809Y-127452380D02*
X175273809Y-126452380D01*
X175178571Y-126595238D01*
X175083333Y-126690476D01*
X174988095Y-126738095D01*
%TO.C,R1*%
X188952380Y-121666666D02*
X188476190Y-122000000D01*
X188952380Y-122238095D02*
X187952380Y-122238095D01*
X187952380Y-121857142D01*
X188000000Y-121761904D01*
X188047619Y-121714285D01*
X188142857Y-121666666D01*
X188285714Y-121666666D01*
X188380952Y-121714285D01*
X188428571Y-121761904D01*
X188476190Y-121857142D01*
X188476190Y-122238095D01*
X188952380Y-120714285D02*
X188952380Y-121285714D01*
X188952380Y-121000000D02*
X187952380Y-121000000D01*
X188095238Y-121095238D01*
X188190476Y-121190476D01*
X188238095Y-121285714D01*
%TO.C,C12*%
X159107142Y-120107142D02*
X159059523Y-120154761D01*
X158916666Y-120202380D01*
X158821428Y-120202380D01*
X158678571Y-120154761D01*
X158583333Y-120059523D01*
X158535714Y-119964285D01*
X158488095Y-119773809D01*
X158488095Y-119630952D01*
X158535714Y-119440476D01*
X158583333Y-119345238D01*
X158678571Y-119250000D01*
X158821428Y-119202380D01*
X158916666Y-119202380D01*
X159059523Y-119250000D01*
X159107142Y-119297619D01*
X160059523Y-120202380D02*
X159488095Y-120202380D01*
X159773809Y-120202380D02*
X159773809Y-119202380D01*
X159678571Y-119345238D01*
X159583333Y-119440476D01*
X159488095Y-119488095D01*
X160440476Y-119297619D02*
X160488095Y-119250000D01*
X160583333Y-119202380D01*
X160821428Y-119202380D01*
X160916666Y-119250000D01*
X160964285Y-119297619D01*
X161011904Y-119392857D01*
X161011904Y-119488095D01*
X160964285Y-119630952D01*
X160392857Y-120202380D01*
X161011904Y-120202380D01*
%TO.C,FB1*%
X163666666Y-122928571D02*
X163333333Y-122928571D01*
X163333333Y-123452380D02*
X163333333Y-122452380D01*
X163809523Y-122452380D01*
X164523809Y-122928571D02*
X164666666Y-122976190D01*
X164714285Y-123023809D01*
X164761904Y-123119047D01*
X164761904Y-123261904D01*
X164714285Y-123357142D01*
X164666666Y-123404761D01*
X164571428Y-123452380D01*
X164190476Y-123452380D01*
X164190476Y-122452380D01*
X164523809Y-122452380D01*
X164619047Y-122500000D01*
X164666666Y-122547619D01*
X164714285Y-122642857D01*
X164714285Y-122738095D01*
X164666666Y-122833333D01*
X164619047Y-122880952D01*
X164523809Y-122928571D01*
X164190476Y-122928571D01*
X165714285Y-123452380D02*
X165142857Y-123452380D01*
X165428571Y-123452380D02*
X165428571Y-122452380D01*
X165333333Y-122595238D01*
X165238095Y-122690476D01*
X165142857Y-122738095D01*
%TO.C,C13*%
X159357142Y-121857142D02*
X159309523Y-121904761D01*
X159166666Y-121952380D01*
X159071428Y-121952380D01*
X158928571Y-121904761D01*
X158833333Y-121809523D01*
X158785714Y-121714285D01*
X158738095Y-121523809D01*
X158738095Y-121380952D01*
X158785714Y-121190476D01*
X158833333Y-121095238D01*
X158928571Y-121000000D01*
X159071428Y-120952380D01*
X159166666Y-120952380D01*
X159309523Y-121000000D01*
X159357142Y-121047619D01*
X160309523Y-121952380D02*
X159738095Y-121952380D01*
X160023809Y-121952380D02*
X160023809Y-120952380D01*
X159928571Y-121095238D01*
X159833333Y-121190476D01*
X159738095Y-121238095D01*
X160642857Y-120952380D02*
X161261904Y-120952380D01*
X160928571Y-121333333D01*
X161071428Y-121333333D01*
X161166666Y-121380952D01*
X161214285Y-121428571D01*
X161261904Y-121523809D01*
X161261904Y-121761904D01*
X161214285Y-121857142D01*
X161166666Y-121904761D01*
X161071428Y-121952380D01*
X160785714Y-121952380D01*
X160690476Y-121904761D01*
X160642857Y-121857142D01*
%TO.C,C10*%
X163357142Y-109857142D02*
X163309523Y-109904761D01*
X163166666Y-109952380D01*
X163071428Y-109952380D01*
X162928571Y-109904761D01*
X162833333Y-109809523D01*
X162785714Y-109714285D01*
X162738095Y-109523809D01*
X162738095Y-109380952D01*
X162785714Y-109190476D01*
X162833333Y-109095238D01*
X162928571Y-109000000D01*
X163071428Y-108952380D01*
X163166666Y-108952380D01*
X163309523Y-109000000D01*
X163357142Y-109047619D01*
X164309523Y-109952380D02*
X163738095Y-109952380D01*
X164023809Y-109952380D02*
X164023809Y-108952380D01*
X163928571Y-109095238D01*
X163833333Y-109190476D01*
X163738095Y-109238095D01*
X164928571Y-108952380D02*
X165023809Y-108952380D01*
X165119047Y-109000000D01*
X165166666Y-109047619D01*
X165214285Y-109142857D01*
X165261904Y-109333333D01*
X165261904Y-109571428D01*
X165214285Y-109761904D01*
X165166666Y-109857142D01*
X165119047Y-109904761D01*
X165023809Y-109952380D01*
X164928571Y-109952380D01*
X164833333Y-109904761D01*
X164785714Y-109857142D01*
X164738095Y-109761904D01*
X164690476Y-109571428D01*
X164690476Y-109333333D01*
X164738095Y-109142857D01*
X164785714Y-109047619D01*
X164833333Y-109000000D01*
X164928571Y-108952380D01*
%TO.C,C11*%
X162107142Y-118357142D02*
X162059523Y-118404761D01*
X161916666Y-118452380D01*
X161821428Y-118452380D01*
X161678571Y-118404761D01*
X161583333Y-118309523D01*
X161535714Y-118214285D01*
X161488095Y-118023809D01*
X161488095Y-117880952D01*
X161535714Y-117690476D01*
X161583333Y-117595238D01*
X161678571Y-117500000D01*
X161821428Y-117452380D01*
X161916666Y-117452380D01*
X162059523Y-117500000D01*
X162107142Y-117547619D01*
X163059523Y-118452380D02*
X162488095Y-118452380D01*
X162773809Y-118452380D02*
X162773809Y-117452380D01*
X162678571Y-117595238D01*
X162583333Y-117690476D01*
X162488095Y-117738095D01*
X164011904Y-118452380D02*
X163440476Y-118452380D01*
X163726190Y-118452380D02*
X163726190Y-117452380D01*
X163630952Y-117595238D01*
X163535714Y-117690476D01*
X163440476Y-117738095D01*
%TO.C,C3*%
X163583333Y-107357142D02*
X163535714Y-107404761D01*
X163392857Y-107452380D01*
X163297619Y-107452380D01*
X163154761Y-107404761D01*
X163059523Y-107309523D01*
X163011904Y-107214285D01*
X162964285Y-107023809D01*
X162964285Y-106880952D01*
X163011904Y-106690476D01*
X163059523Y-106595238D01*
X163154761Y-106500000D01*
X163297619Y-106452380D01*
X163392857Y-106452380D01*
X163535714Y-106500000D01*
X163583333Y-106547619D01*
X163916666Y-106452380D02*
X164535714Y-106452380D01*
X164202380Y-106833333D01*
X164345238Y-106833333D01*
X164440476Y-106880952D01*
X164488095Y-106928571D01*
X164535714Y-107023809D01*
X164535714Y-107261904D01*
X164488095Y-107357142D01*
X164440476Y-107404761D01*
X164345238Y-107452380D01*
X164059523Y-107452380D01*
X163964285Y-107404761D01*
X163916666Y-107357142D01*
%TO.C,R2*%
X165333333Y-125202380D02*
X165000000Y-124726190D01*
X164761904Y-125202380D02*
X164761904Y-124202380D01*
X165142857Y-124202380D01*
X165238095Y-124250000D01*
X165285714Y-124297619D01*
X165333333Y-124392857D01*
X165333333Y-124535714D01*
X165285714Y-124630952D01*
X165238095Y-124678571D01*
X165142857Y-124726190D01*
X164761904Y-124726190D01*
X165714285Y-124297619D02*
X165761904Y-124250000D01*
X165857142Y-124202380D01*
X166095238Y-124202380D01*
X166190476Y-124250000D01*
X166238095Y-124297619D01*
X166285714Y-124392857D01*
X166285714Y-124488095D01*
X166238095Y-124630952D01*
X165666666Y-125202380D01*
X166285714Y-125202380D01*
%TO.C,U2*%
X168238095Y-109102380D02*
X168238095Y-109911904D01*
X168285714Y-110007142D01*
X168333333Y-110054761D01*
X168428571Y-110102380D01*
X168619047Y-110102380D01*
X168714285Y-110054761D01*
X168761904Y-110007142D01*
X168809523Y-109911904D01*
X168809523Y-109102380D01*
X169238095Y-109197619D02*
X169285714Y-109150000D01*
X169380952Y-109102380D01*
X169619047Y-109102380D01*
X169714285Y-109150000D01*
X169761904Y-109197619D01*
X169809523Y-109292857D01*
X169809523Y-109388095D01*
X169761904Y-109530952D01*
X169190476Y-110102380D01*
X169809523Y-110102380D01*
%TO.C,R3*%
X172333333Y-125202380D02*
X172000000Y-124726190D01*
X171761904Y-125202380D02*
X171761904Y-124202380D01*
X172142857Y-124202380D01*
X172238095Y-124250000D01*
X172285714Y-124297619D01*
X172333333Y-124392857D01*
X172333333Y-124535714D01*
X172285714Y-124630952D01*
X172238095Y-124678571D01*
X172142857Y-124726190D01*
X171761904Y-124726190D01*
X172666666Y-124202380D02*
X173285714Y-124202380D01*
X172952380Y-124583333D01*
X173095238Y-124583333D01*
X173190476Y-124630952D01*
X173238095Y-124678571D01*
X173285714Y-124773809D01*
X173285714Y-125011904D01*
X173238095Y-125107142D01*
X173190476Y-125154761D01*
X173095238Y-125202380D01*
X172809523Y-125202380D01*
X172714285Y-125154761D01*
X172666666Y-125107142D01*
%TO.C,C5*%
X166833333Y-123107142D02*
X166785714Y-123154761D01*
X166642857Y-123202380D01*
X166547619Y-123202380D01*
X166404761Y-123154761D01*
X166309523Y-123059523D01*
X166261904Y-122964285D01*
X166214285Y-122773809D01*
X166214285Y-122630952D01*
X166261904Y-122440476D01*
X166309523Y-122345238D01*
X166404761Y-122250000D01*
X166547619Y-122202380D01*
X166642857Y-122202380D01*
X166785714Y-122250000D01*
X166833333Y-122297619D01*
X167738095Y-122202380D02*
X167261904Y-122202380D01*
X167214285Y-122678571D01*
X167261904Y-122630952D01*
X167357142Y-122583333D01*
X167595238Y-122583333D01*
X167690476Y-122630952D01*
X167738095Y-122678571D01*
X167785714Y-122773809D01*
X167785714Y-123011904D01*
X167738095Y-123107142D01*
X167690476Y-123154761D01*
X167595238Y-123202380D01*
X167357142Y-123202380D01*
X167261904Y-123154761D01*
X167214285Y-123107142D01*
D12*
%TO.C,D1*%
X186300000Y-123410000D02*
G75*
G03*
X186300000Y-123410000I-50000J0D01*
G01*
D13*
%TO.C,SW1*%
X154070000Y-105550000D02*
X153280000Y-105550000D01*
X155120000Y-107400000D02*
X155120000Y-109100000D01*
X155120000Y-110400000D02*
X155120000Y-110600000D01*
X152270000Y-106150000D02*
X152270000Y-111850000D01*
X153280000Y-112450000D02*
X154070000Y-112450000D01*
%TO.C,Y1*%
X156850000Y-112600000D02*
X156850000Y-116600000D01*
X160150000Y-112600000D02*
X156850000Y-112600000D01*
%TO.C,C8*%
X160640000Y-115707836D02*
X160640000Y-115492164D01*
X161360000Y-115707836D02*
X161360000Y-115492164D01*
%TO.C,J3*%
X181800000Y-99170000D02*
X183130000Y-99170000D01*
X183130000Y-99170000D02*
X183130000Y-100500000D01*
X180530000Y-99170000D02*
X180530000Y-101830000D01*
X180530000Y-101830000D02*
X172850000Y-101830000D01*
X180530000Y-99170000D02*
X172850000Y-99170000D01*
X172850000Y-99170000D02*
X172850000Y-101830000D01*
%TO.C,C6*%
X162640000Y-112107836D02*
X162640000Y-111892164D01*
X163360000Y-112107836D02*
X163360000Y-111892164D01*
%TO.C,R4*%
X158846359Y-105620000D02*
X159153641Y-105620000D01*
X158846359Y-106380000D02*
X159153641Y-106380000D01*
%TO.C,C4*%
X160640000Y-113687836D02*
X160640000Y-113472164D01*
X161360000Y-113687836D02*
X161360000Y-113472164D01*
%TO.C,R5*%
X179130000Y-111586359D02*
X179130000Y-111893641D01*
X178370000Y-111586359D02*
X178370000Y-111893641D01*
%TO.C,C1*%
X177738748Y-119235000D02*
X178261252Y-119235000D01*
X177738748Y-117765000D02*
X178261252Y-117765000D01*
%TO.C,C9*%
X172107836Y-121860000D02*
X171892164Y-121860000D01*
X172107836Y-121140000D02*
X171892164Y-121140000D01*
%TO.C,C2*%
X182265000Y-124261252D02*
X182265000Y-123738748D01*
X183735000Y-124261252D02*
X183735000Y-123738748D01*
%TO.C,C7*%
X175360000Y-112892164D02*
X175360000Y-113107836D01*
X174640000Y-112892164D02*
X174640000Y-113107836D01*
%TO.C,U1*%
X181410000Y-125910000D02*
X180150000Y-125910000D01*
X174590000Y-122150000D02*
X174590000Y-125910000D01*
X174590000Y-125910000D02*
X175850000Y-125910000D01*
X181410000Y-119900000D02*
X181410000Y-125910000D01*
%TO.C,R1*%
X186346359Y-121880000D02*
X186653641Y-121880000D01*
X186346359Y-121120000D02*
X186653641Y-121120000D01*
%TO.C,C12*%
X162587836Y-120360000D02*
X162372164Y-120360000D01*
X162587836Y-119640000D02*
X162372164Y-119640000D01*
%TO.C,FB1*%
X163990000Y-120624721D02*
X163990000Y-120950279D01*
X165010000Y-120624721D02*
X165010000Y-120950279D01*
%TO.C,C13*%
X162412164Y-121860000D02*
X162627836Y-121860000D01*
X162412164Y-121140000D02*
X162627836Y-121140000D01*
%TO.C,J1*%
X164200000Y-130580000D02*
X162870000Y-130580000D01*
X165470000Y-130580000D02*
X165470000Y-127920000D01*
X162870000Y-130580000D02*
X162870000Y-129250000D01*
X165470000Y-130580000D02*
X173150000Y-130580000D01*
X165470000Y-127920000D02*
X173150000Y-127920000D01*
X173150000Y-130580000D02*
X173150000Y-127920000D01*
%TO.C,C10*%
X166392164Y-109140000D02*
X166607836Y-109140000D01*
X166392164Y-109860000D02*
X166607836Y-109860000D01*
%TO.C,C11*%
X162640000Y-116607836D02*
X162640000Y-116392164D01*
X163360000Y-116607836D02*
X163360000Y-116392164D01*
%TO.C,C3*%
X166359420Y-107510000D02*
X166640580Y-107510000D01*
X166359420Y-106490000D02*
X166640580Y-106490000D01*
%TO.C,J2*%
X166530000Y-101830000D02*
X158850000Y-101830000D01*
X166530000Y-99170000D02*
X158850000Y-99170000D01*
X167800000Y-99170000D02*
X169130000Y-99170000D01*
X166530000Y-99170000D02*
X166530000Y-101830000D01*
X158850000Y-99170000D02*
X158850000Y-101830000D01*
X169130000Y-99170000D02*
X169130000Y-100500000D01*
%TO.C,R2*%
X167653641Y-125130000D02*
X167346359Y-125130000D01*
X167653641Y-124370000D02*
X167346359Y-124370000D01*
%TO.C,U2*%
X165840000Y-119110000D02*
X165390000Y-119110000D01*
X165390000Y-112340000D02*
X164100000Y-112340000D01*
X172610000Y-111890000D02*
X172610000Y-112340000D01*
X165390000Y-119110000D02*
X165390000Y-118660000D01*
X172160000Y-119110000D02*
X172610000Y-119110000D01*
X165840000Y-111890000D02*
X165390000Y-111890000D01*
X172610000Y-119110000D02*
X172610000Y-118660000D01*
X165390000Y-111890000D02*
X165390000Y-112340000D01*
X172160000Y-111890000D02*
X172610000Y-111890000D01*
%TO.C,R3*%
X169846359Y-124370000D02*
X170153641Y-124370000D01*
X169846359Y-125130000D02*
X170153641Y-125130000D01*
%TO.C,C5*%
X166892164Y-121140000D02*
X167107836Y-121140000D01*
X166892164Y-121860000D02*
X167107836Y-121860000D01*
D11*
%TO.C,J4*%
X191545000Y-111355000D02*
X191395000Y-111355000D01*
X185420000Y-117305000D02*
X185845000Y-117305000D01*
X188995000Y-111355000D02*
X187595000Y-111355000D01*
X191395000Y-119655000D02*
X191545000Y-119655000D01*
X187595000Y-119655000D02*
X188995000Y-119655000D01*
X185420000Y-116580000D02*
X185420000Y-117305000D01*
X185845000Y-113705000D02*
X185845000Y-112705000D01*
X191545000Y-119355000D02*
X191995000Y-119355000D01*
X191545000Y-119655000D02*
X191545000Y-119355000D01*
X191545000Y-111655000D02*
X191545000Y-111355000D01*
X191995000Y-111655000D02*
X191545000Y-111655000D01*
X185845000Y-117305000D02*
X185845000Y-118305000D01*
%TD*%
M02*
