%TF.GenerationSoftware,KiCad,Pcbnew,6.0.5-a6ca702e91~116~ubuntu20.04.1*%
%TF.CreationDate,2023-02-10T18:46:25+05:30*%
%TF.ProjectId,STM32_kicad,53544d33-325f-46b6-9963-61642e6b6963,rev?*%
%TF.SameCoordinates,Original*%
%TF.FileFunction,Copper,L2,Bot*%
%TF.FilePolarity,Positive*%
%FSLAX46Y46*%
G04 Gerber Fmt 4.6, Leading zero omitted, Abs format (unit mm)*
G04 Created by KiCad (PCBNEW 6.0.5-a6ca702e91~116~ubuntu20.04.1) date 2023-02-10 18:46:25*
%MOMM*%
%LPD*%
G01*
G04 APERTURE LIST*
%TA.AperFunction,ComponentPad*%
%ADD10R,1.700000X1.700000*%
%TD*%
%TA.AperFunction,ComponentPad*%
%ADD11O,1.700000X1.700000*%
%TD*%
%TA.AperFunction,ComponentPad*%
%ADD12O,2.000000X1.450000*%
%TD*%
%TA.AperFunction,ComponentPad*%
%ADD13O,1.800000X1.150000*%
%TD*%
%TA.AperFunction,ViaPad*%
%ADD14C,0.700000*%
%TD*%
%TA.AperFunction,Conductor*%
%ADD15C,0.500000*%
%TD*%
%TA.AperFunction,Conductor*%
%ADD16C,0.300000*%
%TD*%
G04 APERTURE END LIST*
D10*
%TO.P,J3,1,Pin_1*%
%TO.N,+3V3*%
X181800000Y-100500000D03*
D11*
%TO.P,J3,2,Pin_2*%
%TO.N,/SWDIO*%
X179260000Y-100500000D03*
%TO.P,J3,3,Pin_3*%
%TO.N,/SWCLK*%
X176720000Y-100500000D03*
%TO.P,J3,4,Pin_4*%
%TO.N,GND*%
X174180000Y-100500000D03*
%TD*%
D10*
%TO.P,J1,1,Pin_1*%
%TO.N,+3V3*%
X164200000Y-129250000D03*
D11*
%TO.P,J1,2,Pin_2*%
%TO.N,/I2C2_SCL*%
X166740000Y-129250000D03*
%TO.P,J1,3,Pin_3*%
%TO.N,/I2C2_SDA*%
X169280000Y-129250000D03*
%TO.P,J1,4,Pin_4*%
%TO.N,GND*%
X171820000Y-129250000D03*
%TD*%
%TO.P,J2,4,Pin_4*%
%TO.N,GND*%
X160180000Y-100500000D03*
%TO.P,J2,3,Pin_3*%
%TO.N,/UART1_RX*%
X162720000Y-100500000D03*
%TO.P,J2,2,Pin_2*%
%TO.N,/UART1_TX*%
X165260000Y-100500000D03*
D10*
%TO.P,J2,1,Pin_1*%
%TO.N,+3V3*%
X167800000Y-100500000D03*
%TD*%
D12*
%TO.P,J4,6,Shield*%
%TO.N,unconnected-(J4-Pad6)*%
X186395000Y-119230000D03*
D13*
X190195000Y-119380000D03*
X190195000Y-111630000D03*
D12*
X186395000Y-111780000D03*
%TD*%
D14*
%TO.N,GND*%
X161750000Y-114750000D03*
X157750000Y-117000000D03*
X159250000Y-112000000D03*
%TO.N,+3V3*%
X166040500Y-127000000D03*
X167500000Y-127000000D03*
X171449500Y-123500000D03*
X170050500Y-123500000D03*
%TO.N,GND*%
X184750000Y-123000000D03*
X180750000Y-122500000D03*
X179750000Y-122500000D03*
X180250000Y-119000000D03*
X180250000Y-118000000D03*
X166750000Y-112500000D03*
X162750000Y-110750000D03*
X157000000Y-106750000D03*
X176000000Y-113625499D03*
X184250000Y-113500000D03*
X187250000Y-122500000D03*
X168380559Y-121380559D03*
X162000000Y-119000000D03*
X162500000Y-122500000D03*
X166250000Y-116250000D03*
X171250000Y-118000000D03*
X161000000Y-112250000D03*
%TD*%
D15*
%TO.N,unconnected-(J4-Pad6)*%
X186395000Y-119230000D02*
X190045000Y-119230000D01*
X190045000Y-119230000D02*
X190195000Y-119380000D01*
X186395000Y-111780000D02*
X186395000Y-119230000D01*
X190195000Y-111630000D02*
X186545000Y-111630000D01*
X186545000Y-111630000D02*
X186395000Y-111780000D01*
%TO.N,+3V3*%
X167500000Y-127000000D02*
X166040500Y-127000000D01*
D16*
X171449500Y-123500000D02*
X170050500Y-123500000D01*
%TD*%
%TA.AperFunction,Conductor*%
%TO.N,GND*%
G36*
X189484391Y-98802384D02*
G01*
X189500000Y-98805136D01*
X189510685Y-98803252D01*
X189520339Y-98803252D01*
X189534278Y-98802425D01*
X189634732Y-98808066D01*
X189795296Y-98817084D01*
X189809113Y-98818641D01*
X190093826Y-98867015D01*
X190107384Y-98870109D01*
X190384899Y-98950060D01*
X190398024Y-98954653D01*
X190664834Y-99065170D01*
X190677362Y-99071203D01*
X190817513Y-99148661D01*
X190930132Y-99210903D01*
X190941900Y-99218298D01*
X191177431Y-99385417D01*
X191188303Y-99394086D01*
X191403642Y-99586525D01*
X191413475Y-99596358D01*
X191605914Y-99811697D01*
X191614583Y-99822569D01*
X191781702Y-100058100D01*
X191789097Y-100069868D01*
X191851339Y-100182487D01*
X191928797Y-100322638D01*
X191934830Y-100335166D01*
X192045347Y-100601976D01*
X192049940Y-100615101D01*
X192056267Y-100637061D01*
X192108320Y-100817740D01*
X192129891Y-100892616D01*
X192132985Y-100906174D01*
X192181359Y-101190887D01*
X192182916Y-101204704D01*
X192186582Y-101269983D01*
X192196613Y-101448584D01*
X192197575Y-101465720D01*
X192196748Y-101479661D01*
X192196748Y-101489315D01*
X192194864Y-101500000D01*
X192197616Y-101515606D01*
X192199500Y-101537139D01*
X192199500Y-128462861D01*
X192197616Y-128484391D01*
X192194864Y-128500000D01*
X192196748Y-128510685D01*
X192196748Y-128520339D01*
X192197575Y-128534280D01*
X192182916Y-128795296D01*
X192181359Y-128809113D01*
X192132985Y-129093826D01*
X192129891Y-129107383D01*
X192108317Y-129182268D01*
X192049940Y-129384899D01*
X192045347Y-129398024D01*
X191934830Y-129664834D01*
X191928797Y-129677362D01*
X191851339Y-129817513D01*
X191806039Y-129899479D01*
X191789101Y-129930126D01*
X191781702Y-129941900D01*
X191614583Y-130177431D01*
X191605914Y-130188303D01*
X191413475Y-130403642D01*
X191403642Y-130413475D01*
X191188303Y-130605914D01*
X191177431Y-130614583D01*
X190941900Y-130781702D01*
X190930132Y-130789097D01*
X190817513Y-130851339D01*
X190677362Y-130928797D01*
X190664834Y-130934830D01*
X190398024Y-131045347D01*
X190384899Y-131049940D01*
X190107384Y-131129891D01*
X190093826Y-131132985D01*
X189809113Y-131181359D01*
X189795296Y-131182916D01*
X189634732Y-131191934D01*
X189534278Y-131197575D01*
X189520339Y-131196748D01*
X189510685Y-131196748D01*
X189500000Y-131194864D01*
X189484391Y-131197616D01*
X189462861Y-131199500D01*
X154537139Y-131199500D01*
X154515609Y-131197616D01*
X154500000Y-131194864D01*
X154489315Y-131196748D01*
X154479661Y-131196748D01*
X154465722Y-131197575D01*
X154365268Y-131191934D01*
X154204704Y-131182916D01*
X154190887Y-131181359D01*
X153906174Y-131132985D01*
X153892616Y-131129891D01*
X153615101Y-131049940D01*
X153601976Y-131045347D01*
X153335166Y-130934830D01*
X153322638Y-130928797D01*
X153182487Y-130851339D01*
X153069868Y-130789097D01*
X153058100Y-130781702D01*
X152822569Y-130614583D01*
X152811697Y-130605914D01*
X152596358Y-130413475D01*
X152586525Y-130403642D01*
X152394086Y-130188303D01*
X152385417Y-130177431D01*
X152362155Y-130144646D01*
X163049500Y-130144646D01*
X163052618Y-130170846D01*
X163098061Y-130273153D01*
X163177287Y-130352241D01*
X163187758Y-130356870D01*
X163187759Y-130356871D01*
X163271147Y-130393737D01*
X163271149Y-130393738D01*
X163279673Y-130397506D01*
X163305354Y-130400500D01*
X165094646Y-130400500D01*
X165098300Y-130400065D01*
X165098302Y-130400065D01*
X165103266Y-130399474D01*
X165120846Y-130397382D01*
X165223153Y-130351939D01*
X165302241Y-130272713D01*
X165339559Y-130188303D01*
X165343737Y-130178853D01*
X165343738Y-130178851D01*
X165347506Y-130170327D01*
X165350500Y-130144646D01*
X165350500Y-129430300D01*
X165370185Y-129363261D01*
X165422989Y-129317506D01*
X165492147Y-129307562D01*
X165555703Y-129336587D01*
X165593477Y-129395365D01*
X165598234Y-129422190D01*
X165598423Y-129425072D01*
X165598425Y-129425082D01*
X165598796Y-129430749D01*
X165650845Y-129635690D01*
X165653219Y-129640841D01*
X165653221Y-129640845D01*
X165714562Y-129773903D01*
X165739369Y-129827714D01*
X165751074Y-129844276D01*
X165820068Y-129941900D01*
X165861405Y-130000391D01*
X166012865Y-130147937D01*
X166017588Y-130151093D01*
X166017592Y-130151096D01*
X166073277Y-130188303D01*
X166188677Y-130265411D01*
X166382953Y-130348878D01*
X166418277Y-130356871D01*
X166583638Y-130394289D01*
X166583642Y-130394290D01*
X166589186Y-130395544D01*
X166715315Y-130400500D01*
X166794789Y-130403623D01*
X166794791Y-130403623D01*
X166800470Y-130403846D01*
X166806090Y-130403031D01*
X166806092Y-130403031D01*
X167004103Y-130374320D01*
X167004104Y-130374320D01*
X167009730Y-130373504D01*
X167028588Y-130367103D01*
X167204565Y-130307367D01*
X167204568Y-130307366D01*
X167209955Y-130305537D01*
X167214916Y-130302759D01*
X167214922Y-130302756D01*
X167321530Y-130243052D01*
X167394442Y-130202219D01*
X167411175Y-130188303D01*
X167552645Y-130070644D01*
X167557012Y-130067012D01*
X167560644Y-130062645D01*
X167688584Y-129908813D01*
X167688585Y-129908811D01*
X167692219Y-129904442D01*
X167738078Y-129822556D01*
X167792756Y-129724922D01*
X167792759Y-129724916D01*
X167795537Y-129719955D01*
X167809996Y-129677362D01*
X167861675Y-129525118D01*
X167863504Y-129519730D01*
X167865726Y-129504404D01*
X167887820Y-129352033D01*
X167916921Y-129288512D01*
X167970225Y-129254346D01*
X168050974Y-129254346D01*
X168104347Y-129288736D01*
X168133296Y-129352327D01*
X168134271Y-129361707D01*
X168138796Y-129430749D01*
X168190845Y-129635690D01*
X168193219Y-129640841D01*
X168193221Y-129640845D01*
X168254562Y-129773903D01*
X168279369Y-129827714D01*
X168291074Y-129844276D01*
X168360068Y-129941900D01*
X168401405Y-130000391D01*
X168552865Y-130147937D01*
X168557588Y-130151093D01*
X168557592Y-130151096D01*
X168613277Y-130188303D01*
X168728677Y-130265411D01*
X168922953Y-130348878D01*
X168958277Y-130356871D01*
X169123638Y-130394289D01*
X169123642Y-130394290D01*
X169129186Y-130395544D01*
X169255315Y-130400500D01*
X169334789Y-130403623D01*
X169334791Y-130403623D01*
X169340470Y-130403846D01*
X169346090Y-130403031D01*
X169346092Y-130403031D01*
X169544103Y-130374320D01*
X169544104Y-130374320D01*
X169549730Y-130373504D01*
X169568588Y-130367103D01*
X169744565Y-130307367D01*
X169744568Y-130307366D01*
X169749955Y-130305537D01*
X169754916Y-130302759D01*
X169754922Y-130302756D01*
X169861530Y-130243052D01*
X169934442Y-130202219D01*
X169951175Y-130188303D01*
X170092645Y-130070644D01*
X170097012Y-130067012D01*
X170100644Y-130062645D01*
X170228584Y-129908813D01*
X170228585Y-129908811D01*
X170232219Y-129904442D01*
X170334059Y-129722594D01*
X170383990Y-129673721D01*
X170452418Y-129659601D01*
X170517617Y-129684717D01*
X170554630Y-129730778D01*
X170644110Y-129922667D01*
X170649508Y-129932017D01*
X170778784Y-130116643D01*
X170785719Y-130124907D01*
X170945091Y-130284279D01*
X170953357Y-130291215D01*
X171137992Y-130420498D01*
X171147324Y-130425886D01*
X171351603Y-130521143D01*
X171361736Y-130524832D01*
X171552779Y-130576022D01*
X171566653Y-130575691D01*
X171570000Y-130567875D01*
X171570000Y-130562806D01*
X172070000Y-130562806D01*
X172073910Y-130576123D01*
X172082326Y-130577333D01*
X172278264Y-130524832D01*
X172288397Y-130521143D01*
X172492676Y-130425886D01*
X172502008Y-130420498D01*
X172686643Y-130291215D01*
X172694909Y-130284279D01*
X172854281Y-130124907D01*
X172861216Y-130116643D01*
X172990492Y-129932017D01*
X172995890Y-129922667D01*
X173091143Y-129718397D01*
X173094832Y-129708264D01*
X173146022Y-129517221D01*
X173145691Y-129503347D01*
X173137875Y-129500000D01*
X172087830Y-129500000D01*
X172072831Y-129504404D01*
X172071644Y-129505774D01*
X172070000Y-129513332D01*
X172070000Y-130562806D01*
X171570000Y-130562806D01*
X171570000Y-128982170D01*
X172070000Y-128982170D01*
X172074404Y-128997169D01*
X172075774Y-128998356D01*
X172083332Y-129000000D01*
X173132806Y-129000000D01*
X173146123Y-128996090D01*
X173147333Y-128987674D01*
X173094832Y-128791736D01*
X173091143Y-128781603D01*
X172995890Y-128577333D01*
X172990492Y-128567983D01*
X172942890Y-128500000D01*
X188144341Y-128500000D01*
X188144813Y-128505395D01*
X188154511Y-128616236D01*
X188164937Y-128735408D01*
X188166336Y-128740631D01*
X188166337Y-128740634D01*
X188194428Y-128845470D01*
X188226097Y-128963663D01*
X188228384Y-128968567D01*
X188228386Y-128968573D01*
X188293116Y-129107384D01*
X188325965Y-129177829D01*
X188329068Y-129182260D01*
X188329073Y-129182268D01*
X188458399Y-129366966D01*
X188458403Y-129366970D01*
X188461505Y-129371401D01*
X188628599Y-129538495D01*
X188633030Y-129541597D01*
X188633034Y-129541601D01*
X188817732Y-129670927D01*
X188822171Y-129674035D01*
X188827082Y-129676325D01*
X189031427Y-129771614D01*
X189031433Y-129771616D01*
X189036337Y-129773903D01*
X189120137Y-129796357D01*
X189259366Y-129833663D01*
X189259369Y-129833664D01*
X189264592Y-129835063D01*
X189269979Y-129835534D01*
X189269983Y-129835535D01*
X189438335Y-129850264D01*
X189438338Y-129850264D01*
X189441034Y-129850500D01*
X189558966Y-129850500D01*
X189561662Y-129850264D01*
X189561665Y-129850264D01*
X189730017Y-129835535D01*
X189730021Y-129835534D01*
X189735408Y-129835063D01*
X189740631Y-129833664D01*
X189740634Y-129833663D01*
X189879863Y-129796357D01*
X189963663Y-129773903D01*
X189968567Y-129771616D01*
X189968573Y-129771614D01*
X190172918Y-129676325D01*
X190177829Y-129674035D01*
X190182268Y-129670927D01*
X190366966Y-129541601D01*
X190366970Y-129541597D01*
X190371401Y-129538495D01*
X190538495Y-129371401D01*
X190674035Y-129177830D01*
X190773903Y-128963663D01*
X190805572Y-128845470D01*
X190833663Y-128740634D01*
X190833664Y-128740631D01*
X190835063Y-128735408D01*
X190845490Y-128616236D01*
X190855187Y-128505395D01*
X190855659Y-128500000D01*
X190835063Y-128264592D01*
X190824950Y-128226847D01*
X190775305Y-128041570D01*
X190773903Y-128036337D01*
X190771616Y-128031433D01*
X190771614Y-128031427D01*
X190676325Y-127827082D01*
X190674035Y-127822171D01*
X190670927Y-127817732D01*
X190541601Y-127633034D01*
X190541597Y-127633030D01*
X190538495Y-127628599D01*
X190371401Y-127461505D01*
X190366970Y-127458403D01*
X190366966Y-127458399D01*
X190182268Y-127329073D01*
X190182266Y-127329072D01*
X190177829Y-127325965D01*
X190140912Y-127308750D01*
X189968573Y-127228386D01*
X189968567Y-127228384D01*
X189963663Y-127226097D01*
X189879863Y-127203643D01*
X189740634Y-127166337D01*
X189740631Y-127166336D01*
X189735408Y-127164937D01*
X189730021Y-127164466D01*
X189730017Y-127164465D01*
X189561665Y-127149736D01*
X189561662Y-127149736D01*
X189558966Y-127149500D01*
X189441034Y-127149500D01*
X189438338Y-127149736D01*
X189438335Y-127149736D01*
X189269983Y-127164465D01*
X189269979Y-127164466D01*
X189264592Y-127164937D01*
X189259369Y-127166336D01*
X189259366Y-127166337D01*
X189120137Y-127203643D01*
X189036337Y-127226097D01*
X189031433Y-127228384D01*
X189031427Y-127228386D01*
X188859088Y-127308750D01*
X188822171Y-127325965D01*
X188817734Y-127329072D01*
X188817732Y-127329073D01*
X188633034Y-127458399D01*
X188633030Y-127458403D01*
X188628599Y-127461505D01*
X188461505Y-127628599D01*
X188325965Y-127822170D01*
X188226097Y-128036337D01*
X188224695Y-128041570D01*
X188175051Y-128226847D01*
X188164937Y-128264592D01*
X188144341Y-128500000D01*
X172942890Y-128500000D01*
X172861216Y-128383357D01*
X172854281Y-128375093D01*
X172694909Y-128215721D01*
X172686643Y-128208785D01*
X172502008Y-128079502D01*
X172492676Y-128074114D01*
X172288397Y-127978857D01*
X172278264Y-127975168D01*
X172087221Y-127923978D01*
X172073347Y-127924309D01*
X172070000Y-127932125D01*
X172070000Y-128982170D01*
X171570000Y-128982170D01*
X171570000Y-127937194D01*
X171566090Y-127923877D01*
X171557674Y-127922667D01*
X171361736Y-127975168D01*
X171351603Y-127978857D01*
X171147333Y-128074110D01*
X171137983Y-128079508D01*
X170953357Y-128208784D01*
X170945093Y-128215719D01*
X170785719Y-128375093D01*
X170778784Y-128383357D01*
X170649508Y-128567983D01*
X170644110Y-128577333D01*
X170552664Y-128773438D01*
X170506491Y-128825877D01*
X170439298Y-128845029D01*
X170372417Y-128824813D01*
X170329071Y-128775878D01*
X170265165Y-128646290D01*
X170138651Y-128476867D01*
X170134481Y-128473012D01*
X170134478Y-128473009D01*
X170028552Y-128375093D01*
X169983381Y-128333337D01*
X169977574Y-128329673D01*
X169809363Y-128223539D01*
X169809361Y-128223538D01*
X169804554Y-128220505D01*
X169608160Y-128142152D01*
X169602579Y-128141042D01*
X169602576Y-128141041D01*
X169504467Y-128121526D01*
X169400775Y-128100901D01*
X169395088Y-128100827D01*
X169395083Y-128100826D01*
X169195034Y-128098207D01*
X169195029Y-128098207D01*
X169189346Y-128098133D01*
X169183742Y-128099096D01*
X169183741Y-128099096D01*
X168986550Y-128132979D01*
X168986547Y-128132980D01*
X168980953Y-128133941D01*
X168782575Y-128207127D01*
X168777697Y-128210029D01*
X168777695Y-128210030D01*
X168605740Y-128312332D01*
X168605737Y-128312334D01*
X168600856Y-128315238D01*
X168441881Y-128454655D01*
X168438362Y-128459119D01*
X168438359Y-128459122D01*
X168401881Y-128505395D01*
X168310976Y-128620708D01*
X168212523Y-128807836D01*
X168210837Y-128813267D01*
X168210835Y-128813271D01*
X168162613Y-128968573D01*
X168149820Y-129009773D01*
X168132851Y-129153140D01*
X168105425Y-129217398D01*
X168050974Y-129254346D01*
X167970225Y-129254346D01*
X167970667Y-129254063D01*
X167918057Y-129222081D01*
X167887453Y-129159271D01*
X167886232Y-129149909D01*
X167876601Y-129045100D01*
X167876081Y-129039440D01*
X167818686Y-128835931D01*
X167725165Y-128646290D01*
X167598651Y-128476867D01*
X167594481Y-128473012D01*
X167594478Y-128473009D01*
X167488552Y-128375093D01*
X167443381Y-128333337D01*
X167437574Y-128329673D01*
X167269363Y-128223539D01*
X167269361Y-128223538D01*
X167264554Y-128220505D01*
X167068160Y-128142152D01*
X167062579Y-128141042D01*
X167062576Y-128141041D01*
X166964467Y-128121526D01*
X166860775Y-128100901D01*
X166855088Y-128100827D01*
X166855083Y-128100826D01*
X166655034Y-128098207D01*
X166655029Y-128098207D01*
X166649346Y-128098133D01*
X166643742Y-128099096D01*
X166643741Y-128099096D01*
X166446550Y-128132979D01*
X166446547Y-128132980D01*
X166440953Y-128133941D01*
X166242575Y-128207127D01*
X166237697Y-128210029D01*
X166237695Y-128210030D01*
X166065740Y-128312332D01*
X166065737Y-128312334D01*
X166060856Y-128315238D01*
X165901881Y-128454655D01*
X165898362Y-128459119D01*
X165898359Y-128459122D01*
X165861881Y-128505395D01*
X165770976Y-128620708D01*
X165672523Y-128807836D01*
X165670837Y-128813267D01*
X165670835Y-128813271D01*
X165622613Y-128968573D01*
X165609820Y-129009773D01*
X165609152Y-129015418D01*
X165609151Y-129015422D01*
X165597640Y-129112681D01*
X165570213Y-129176942D01*
X165512397Y-129216173D01*
X165442549Y-129217919D01*
X165382845Y-129181625D01*
X165352241Y-129118814D01*
X165350500Y-129098106D01*
X165350500Y-128355354D01*
X165347382Y-128329154D01*
X165301939Y-128226847D01*
X165222713Y-128147759D01*
X165212242Y-128143130D01*
X165212241Y-128143129D01*
X165128853Y-128106263D01*
X165128851Y-128106262D01*
X165120327Y-128102494D01*
X165094646Y-128099500D01*
X163305354Y-128099500D01*
X163301700Y-128099935D01*
X163301698Y-128099935D01*
X163296734Y-128100526D01*
X163279154Y-128102618D01*
X163176847Y-128148061D01*
X163097759Y-128227287D01*
X163093130Y-128237758D01*
X163093129Y-128237759D01*
X163058876Y-128315238D01*
X163052494Y-128329673D01*
X163049500Y-128355354D01*
X163049500Y-130144646D01*
X152362155Y-130144646D01*
X152218298Y-129941900D01*
X152210899Y-129930126D01*
X152193962Y-129899479D01*
X152148661Y-129817513D01*
X152071203Y-129677362D01*
X152065170Y-129664834D01*
X151954653Y-129398024D01*
X151950060Y-129384899D01*
X151891683Y-129182268D01*
X151870109Y-129107383D01*
X151867015Y-129093826D01*
X151818641Y-128809113D01*
X151817084Y-128795296D01*
X151802425Y-128534280D01*
X151803252Y-128520339D01*
X151803252Y-128510685D01*
X151805136Y-128500000D01*
X153144341Y-128500000D01*
X153144813Y-128505395D01*
X153154511Y-128616236D01*
X153164937Y-128735408D01*
X153166336Y-128740631D01*
X153166337Y-128740634D01*
X153194428Y-128845470D01*
X153226097Y-128963663D01*
X153228384Y-128968567D01*
X153228386Y-128968573D01*
X153293116Y-129107384D01*
X153325965Y-129177829D01*
X153329068Y-129182260D01*
X153329073Y-129182268D01*
X153458399Y-129366966D01*
X153458403Y-129366970D01*
X153461505Y-129371401D01*
X153628599Y-129538495D01*
X153633030Y-129541597D01*
X153633034Y-129541601D01*
X153817732Y-129670927D01*
X153822171Y-129674035D01*
X153827082Y-129676325D01*
X154031427Y-129771614D01*
X154031433Y-129771616D01*
X154036337Y-129773903D01*
X154120137Y-129796357D01*
X154259366Y-129833663D01*
X154259369Y-129833664D01*
X154264592Y-129835063D01*
X154269979Y-129835534D01*
X154269983Y-129835535D01*
X154438335Y-129850264D01*
X154438338Y-129850264D01*
X154441034Y-129850500D01*
X154558966Y-129850500D01*
X154561662Y-129850264D01*
X154561665Y-129850264D01*
X154730017Y-129835535D01*
X154730021Y-129835534D01*
X154735408Y-129835063D01*
X154740631Y-129833664D01*
X154740634Y-129833663D01*
X154879863Y-129796357D01*
X154963663Y-129773903D01*
X154968567Y-129771616D01*
X154968573Y-129771614D01*
X155172918Y-129676325D01*
X155177829Y-129674035D01*
X155182268Y-129670927D01*
X155366966Y-129541601D01*
X155366970Y-129541597D01*
X155371401Y-129538495D01*
X155538495Y-129371401D01*
X155674035Y-129177830D01*
X155773903Y-128963663D01*
X155805572Y-128845470D01*
X155833663Y-128740634D01*
X155833664Y-128740631D01*
X155835063Y-128735408D01*
X155845490Y-128616236D01*
X155855187Y-128505395D01*
X155855659Y-128500000D01*
X155835063Y-128264592D01*
X155824950Y-128226847D01*
X155775305Y-128041570D01*
X155773903Y-128036337D01*
X155771616Y-128031433D01*
X155771614Y-128031427D01*
X155676325Y-127827082D01*
X155674035Y-127822171D01*
X155670927Y-127817732D01*
X155541601Y-127633034D01*
X155541597Y-127633030D01*
X155538495Y-127628599D01*
X155371401Y-127461505D01*
X155366970Y-127458403D01*
X155366966Y-127458399D01*
X155182268Y-127329073D01*
X155182266Y-127329072D01*
X155177829Y-127325965D01*
X155140912Y-127308750D01*
X154968573Y-127228386D01*
X154968567Y-127228384D01*
X154963663Y-127226097D01*
X154879863Y-127203643D01*
X154740634Y-127166337D01*
X154740631Y-127166336D01*
X154735408Y-127164937D01*
X154730021Y-127164466D01*
X154730017Y-127164465D01*
X154561665Y-127149736D01*
X154561662Y-127149736D01*
X154558966Y-127149500D01*
X154441034Y-127149500D01*
X154438338Y-127149736D01*
X154438335Y-127149736D01*
X154269983Y-127164465D01*
X154269979Y-127164466D01*
X154264592Y-127164937D01*
X154259369Y-127166336D01*
X154259366Y-127166337D01*
X154120137Y-127203643D01*
X154036337Y-127226097D01*
X154031433Y-127228384D01*
X154031427Y-127228386D01*
X153859088Y-127308750D01*
X153822171Y-127325965D01*
X153817734Y-127329072D01*
X153817732Y-127329073D01*
X153633034Y-127458399D01*
X153633030Y-127458403D01*
X153628599Y-127461505D01*
X153461505Y-127628599D01*
X153325965Y-127822170D01*
X153226097Y-128036337D01*
X153224695Y-128041570D01*
X153175051Y-128226847D01*
X153164937Y-128264592D01*
X153144341Y-128500000D01*
X151805136Y-128500000D01*
X151802384Y-128484391D01*
X151800500Y-128462861D01*
X151800500Y-126993138D01*
X165385258Y-126993138D01*
X165386078Y-127000566D01*
X165386078Y-127000568D01*
X165387974Y-127017744D01*
X165402535Y-127149633D01*
X165405101Y-127156645D01*
X165405102Y-127156649D01*
X165434706Y-127237544D01*
X165456643Y-127297490D01*
X165544458Y-127428172D01*
X165566683Y-127448395D01*
X165655378Y-127529102D01*
X165655382Y-127529105D01*
X165660910Y-127534135D01*
X165667480Y-127537702D01*
X165667481Y-127537703D01*
X165792708Y-127605696D01*
X165799276Y-127609262D01*
X165872985Y-127628599D01*
X165944341Y-127647319D01*
X165944343Y-127647319D01*
X165951569Y-127649215D01*
X166028627Y-127650425D01*
X166101525Y-127651571D01*
X166101528Y-127651571D01*
X166108995Y-127651688D01*
X166116276Y-127650020D01*
X166116280Y-127650020D01*
X166255177Y-127618208D01*
X166255178Y-127618208D01*
X166262468Y-127616538D01*
X166367481Y-127563722D01*
X166423197Y-127550500D01*
X167119058Y-127550500D01*
X167178226Y-127565527D01*
X167258776Y-127609262D01*
X167332485Y-127628599D01*
X167403841Y-127647319D01*
X167403843Y-127647319D01*
X167411069Y-127649215D01*
X167488127Y-127650425D01*
X167561025Y-127651571D01*
X167561028Y-127651571D01*
X167568495Y-127651688D01*
X167575776Y-127650020D01*
X167575780Y-127650020D01*
X167714681Y-127618207D01*
X167721968Y-127616538D01*
X167862625Y-127545795D01*
X167868306Y-127540943D01*
X167868309Y-127540941D01*
X167976666Y-127448395D01*
X167976667Y-127448394D01*
X167982348Y-127443542D01*
X167993393Y-127428172D01*
X168064602Y-127329073D01*
X168074224Y-127315683D01*
X168132950Y-127169598D01*
X168135777Y-127149736D01*
X168154562Y-127017744D01*
X168154562Y-127017740D01*
X168155134Y-127013723D01*
X168155278Y-127000000D01*
X168136363Y-126843694D01*
X168080710Y-126696412D01*
X168072337Y-126684229D01*
X167995768Y-126572821D01*
X167995765Y-126572818D01*
X167991531Y-126566657D01*
X167873976Y-126461919D01*
X167734831Y-126388245D01*
X167582128Y-126349889D01*
X167500329Y-126349461D01*
X167432158Y-126349104D01*
X167432157Y-126349104D01*
X167424684Y-126349065D01*
X167417421Y-126350809D01*
X167417418Y-126350809D01*
X167348136Y-126367443D01*
X167271588Y-126385820D01*
X167206418Y-126419457D01*
X167174968Y-126435689D01*
X167118096Y-126449500D01*
X166421824Y-126449500D01*
X166363801Y-126435087D01*
X166281943Y-126391745D01*
X166281937Y-126391743D01*
X166275331Y-126388245D01*
X166122628Y-126349889D01*
X166040829Y-126349461D01*
X165972658Y-126349104D01*
X165972657Y-126349104D01*
X165965184Y-126349065D01*
X165957921Y-126350809D01*
X165957918Y-126350809D01*
X165888636Y-126367443D01*
X165812088Y-126385820D01*
X165672179Y-126458032D01*
X165553534Y-126561533D01*
X165463001Y-126690348D01*
X165405809Y-126837039D01*
X165385258Y-126993138D01*
X151800500Y-126993138D01*
X151800500Y-123493138D01*
X169395258Y-123493138D01*
X169396078Y-123500566D01*
X169396078Y-123500568D01*
X169397974Y-123517744D01*
X169412535Y-123649633D01*
X169466643Y-123797490D01*
X169554458Y-123928172D01*
X169580248Y-123951639D01*
X169665378Y-124029102D01*
X169665382Y-124029105D01*
X169670910Y-124034135D01*
X169809276Y-124109262D01*
X169911531Y-124136088D01*
X169954341Y-124147319D01*
X169954343Y-124147319D01*
X169961569Y-124149215D01*
X170038627Y-124150425D01*
X170111525Y-124151571D01*
X170111528Y-124151571D01*
X170118995Y-124151688D01*
X170126276Y-124150020D01*
X170126280Y-124150020D01*
X170265181Y-124118207D01*
X170272468Y-124116538D01*
X170413125Y-124045795D01*
X170418806Y-124040943D01*
X170418809Y-124040941D01*
X170489915Y-123980210D01*
X170553677Y-123951639D01*
X170570447Y-123950500D01*
X170930025Y-123950500D01*
X170997064Y-123970185D01*
X171013478Y-123982786D01*
X171064378Y-124029102D01*
X171064382Y-124029105D01*
X171069910Y-124034135D01*
X171208276Y-124109262D01*
X171310531Y-124136088D01*
X171353341Y-124147319D01*
X171353343Y-124147319D01*
X171360569Y-124149215D01*
X171437627Y-124150425D01*
X171510525Y-124151571D01*
X171510528Y-124151571D01*
X171517995Y-124151688D01*
X171525276Y-124150020D01*
X171525280Y-124150020D01*
X171664181Y-124118207D01*
X171671468Y-124116538D01*
X171812125Y-124045795D01*
X171817806Y-124040943D01*
X171817809Y-124040941D01*
X171926166Y-123948395D01*
X171926167Y-123948394D01*
X171931848Y-123943542D01*
X171942893Y-123928172D01*
X171963298Y-123899775D01*
X172023724Y-123815683D01*
X172082450Y-123669598D01*
X172084293Y-123656649D01*
X172104062Y-123517744D01*
X172104062Y-123517740D01*
X172104634Y-123513723D01*
X172104778Y-123500000D01*
X172085863Y-123343694D01*
X172030210Y-123196412D01*
X172021837Y-123184229D01*
X171945268Y-123072821D01*
X171945265Y-123072818D01*
X171941031Y-123066657D01*
X171823476Y-122961919D01*
X171684331Y-122888245D01*
X171531628Y-122849889D01*
X171449829Y-122849461D01*
X171381658Y-122849104D01*
X171381657Y-122849104D01*
X171374184Y-122849065D01*
X171366921Y-122850809D01*
X171366918Y-122850809D01*
X171297636Y-122867442D01*
X171221088Y-122885820D01*
X171081179Y-122958032D01*
X171075548Y-122962945D01*
X171075547Y-122962945D01*
X171011357Y-123018942D01*
X170947898Y-123048178D01*
X170929842Y-123049500D01*
X170570002Y-123049500D01*
X170502963Y-123029815D01*
X170487513Y-123018083D01*
X170430059Y-122966893D01*
X170430057Y-122966892D01*
X170424476Y-122961919D01*
X170285331Y-122888245D01*
X170132628Y-122849889D01*
X170050829Y-122849461D01*
X169982658Y-122849104D01*
X169982657Y-122849104D01*
X169975184Y-122849065D01*
X169967921Y-122850809D01*
X169967918Y-122850809D01*
X169898636Y-122867442D01*
X169822088Y-122885820D01*
X169682179Y-122958032D01*
X169563534Y-123061533D01*
X169473001Y-123190348D01*
X169415809Y-123337039D01*
X169395258Y-123493138D01*
X151800500Y-123493138D01*
X151800500Y-119222806D01*
X185089563Y-119222806D01*
X185090112Y-119228839D01*
X185090112Y-119228843D01*
X185091665Y-119245904D01*
X185107790Y-119423089D01*
X185109501Y-119428902D01*
X185109501Y-119428903D01*
X185162859Y-119610198D01*
X185164572Y-119616018D01*
X185257746Y-119794243D01*
X185351919Y-119911370D01*
X185379137Y-119945222D01*
X185383763Y-119950976D01*
X185537823Y-120080248D01*
X185714058Y-120177134D01*
X185719840Y-120178968D01*
X185719842Y-120178969D01*
X185899976Y-120236111D01*
X185899978Y-120236111D01*
X185905755Y-120237944D01*
X185960287Y-120244061D01*
X186058815Y-120255113D01*
X186058821Y-120255113D01*
X186062268Y-120255500D01*
X186720606Y-120255500D01*
X186723621Y-120255204D01*
X186723629Y-120255204D01*
X186864115Y-120241429D01*
X186864117Y-120241429D01*
X186870151Y-120240837D01*
X187062679Y-120182710D01*
X187240249Y-120088294D01*
X187396099Y-119961186D01*
X187508381Y-119825460D01*
X187566281Y-119786352D01*
X187603925Y-119780500D01*
X189016611Y-119780500D01*
X189083650Y-119800185D01*
X189126298Y-119846667D01*
X189136764Y-119866516D01*
X189139898Y-119872460D01*
X189144229Y-119877585D01*
X189144231Y-119877588D01*
X189258345Y-120012624D01*
X189262678Y-120017751D01*
X189268012Y-120021829D01*
X189408456Y-120129207D01*
X189408459Y-120129209D01*
X189413793Y-120133287D01*
X189419882Y-120136126D01*
X189419883Y-120136127D01*
X189580109Y-120210841D01*
X189586193Y-120213678D01*
X189592738Y-120215141D01*
X189592741Y-120215142D01*
X189684890Y-120235740D01*
X189771834Y-120255174D01*
X189777665Y-120255500D01*
X190567517Y-120255500D01*
X190709109Y-120240118D01*
X190889396Y-120179445D01*
X191052447Y-120081474D01*
X191179649Y-119961186D01*
X191185781Y-119955387D01*
X191190658Y-119950775D01*
X191240396Y-119877588D01*
X191293804Y-119799000D01*
X191293806Y-119798997D01*
X191297578Y-119793446D01*
X191300070Y-119787216D01*
X191300072Y-119787212D01*
X191365727Y-119623062D01*
X191368221Y-119616827D01*
X191369318Y-119610202D01*
X191398192Y-119435788D01*
X191398192Y-119435786D01*
X191399289Y-119429160D01*
X191389333Y-119239199D01*
X191338819Y-119055807D01*
X191250102Y-118887540D01*
X191206947Y-118836472D01*
X191131655Y-118747376D01*
X191131653Y-118747374D01*
X191127322Y-118742249D01*
X191019503Y-118659815D01*
X190981544Y-118630793D01*
X190981541Y-118630791D01*
X190976207Y-118626713D01*
X190903367Y-118592747D01*
X190809891Y-118549159D01*
X190803807Y-118546322D01*
X190797262Y-118544859D01*
X190797259Y-118544858D01*
X190685522Y-118519882D01*
X190618166Y-118504826D01*
X190612335Y-118504500D01*
X189822483Y-118504500D01*
X189680891Y-118519882D01*
X189500604Y-118580555D01*
X189416994Y-118630793D01*
X189365408Y-118661789D01*
X189301543Y-118679500D01*
X188064655Y-118679500D01*
X187997616Y-118659815D01*
X187951861Y-118607011D01*
X187941917Y-118537853D01*
X187967179Y-118484614D01*
X187964423Y-118482634D01*
X188041377Y-118375541D01*
X188063361Y-118344947D01*
X188126601Y-118187634D01*
X188127654Y-118180237D01*
X188149918Y-118023800D01*
X188149918Y-118023794D01*
X188150490Y-118019778D01*
X188150645Y-118005000D01*
X188130276Y-117836680D01*
X188070345Y-117678077D01*
X188066108Y-117671912D01*
X187978549Y-117544513D01*
X187978546Y-117544510D01*
X187974312Y-117538349D01*
X187847721Y-117425560D01*
X187697881Y-117346224D01*
X187533441Y-117304919D01*
X187447248Y-117304468D01*
X187371368Y-117304070D01*
X187371367Y-117304070D01*
X187363895Y-117304031D01*
X187342235Y-117309231D01*
X187206295Y-117341868D01*
X187206293Y-117341869D01*
X187199032Y-117343612D01*
X187192393Y-117347039D01*
X187192392Y-117347039D01*
X187126372Y-117381114D01*
X187057772Y-117394369D01*
X186992895Y-117368432D01*
X186952339Y-117311537D01*
X186945500Y-117270925D01*
X186945500Y-113739351D01*
X186965185Y-113672312D01*
X187017989Y-113626557D01*
X187087147Y-113616613D01*
X187128664Y-113630377D01*
X187185235Y-113661092D01*
X187280585Y-113686107D01*
X187342005Y-113702220D01*
X187342007Y-113702220D01*
X187349233Y-113704116D01*
X187432178Y-113705419D01*
X187511290Y-113706662D01*
X187511293Y-113706662D01*
X187518760Y-113706779D01*
X187641209Y-113678735D01*
X187676738Y-113670598D01*
X187676739Y-113670598D01*
X187684029Y-113668928D01*
X187788046Y-113616613D01*
X187828820Y-113596106D01*
X187828822Y-113596105D01*
X187835498Y-113592747D01*
X187841180Y-113587894D01*
X187841183Y-113587892D01*
X187958741Y-113487487D01*
X187964423Y-113482634D01*
X188063361Y-113344947D01*
X188126601Y-113187634D01*
X188150490Y-113019778D01*
X188150645Y-113005000D01*
X188150157Y-113000967D01*
X188131175Y-112844105D01*
X188131174Y-112844101D01*
X188130276Y-112836680D01*
X188104518Y-112768513D01*
X188072989Y-112685073D01*
X188072987Y-112685070D01*
X188070345Y-112678077D01*
X188037473Y-112630248D01*
X187978549Y-112544513D01*
X187978546Y-112544510D01*
X187974312Y-112538349D01*
X187890504Y-112463678D01*
X187853303Y-112430533D01*
X187853301Y-112430532D01*
X187847721Y-112425560D01*
X187826052Y-112414087D01*
X187776016Y-112365321D01*
X187760287Y-112297245D01*
X187783861Y-112231472D01*
X187839251Y-112188885D01*
X187884075Y-112180500D01*
X189131386Y-112180500D01*
X189198425Y-112200185D01*
X189226096Y-112224462D01*
X189262678Y-112267751D01*
X189268012Y-112271829D01*
X189408456Y-112379207D01*
X189408459Y-112379209D01*
X189413793Y-112383287D01*
X189419882Y-112386126D01*
X189419883Y-112386127D01*
X189580109Y-112460841D01*
X189586193Y-112463678D01*
X189592738Y-112465141D01*
X189592741Y-112465142D01*
X189684890Y-112485740D01*
X189771834Y-112505174D01*
X189777665Y-112505500D01*
X190567517Y-112505500D01*
X190709109Y-112490118D01*
X190889396Y-112429445D01*
X191052447Y-112331474D01*
X191190658Y-112200775D01*
X191194432Y-112195222D01*
X191293804Y-112049000D01*
X191293806Y-112048997D01*
X191297578Y-112043446D01*
X191300070Y-112037216D01*
X191300072Y-112037212D01*
X191365727Y-111873062D01*
X191368221Y-111866827D01*
X191399289Y-111679160D01*
X191389333Y-111489199D01*
X191338819Y-111305807D01*
X191250102Y-111137540D01*
X191245345Y-111131910D01*
X191131655Y-110997376D01*
X191131653Y-110997374D01*
X191127322Y-110992249D01*
X191041756Y-110926829D01*
X190981544Y-110880793D01*
X190981541Y-110880791D01*
X190976207Y-110876713D01*
X190884643Y-110834016D01*
X190809891Y-110799159D01*
X190803807Y-110796322D01*
X190797262Y-110794859D01*
X190797259Y-110794858D01*
X190685522Y-110769882D01*
X190618166Y-110754826D01*
X190612335Y-110754500D01*
X189822483Y-110754500D01*
X189680891Y-110769882D01*
X189500604Y-110830555D01*
X189337553Y-110928526D01*
X189332676Y-110933138D01*
X189213754Y-111045596D01*
X189151520Y-111077355D01*
X189128556Y-111079500D01*
X187475771Y-111079500D01*
X187408732Y-111059815D01*
X187396065Y-111050489D01*
X187390234Y-111045596D01*
X187252177Y-110929752D01*
X187075942Y-110832866D01*
X187070160Y-110831032D01*
X187070158Y-110831031D01*
X186890024Y-110773889D01*
X186890022Y-110773889D01*
X186884245Y-110772056D01*
X186829713Y-110765939D01*
X186731185Y-110754887D01*
X186731179Y-110754887D01*
X186727732Y-110754500D01*
X186069394Y-110754500D01*
X186066379Y-110754796D01*
X186066371Y-110754796D01*
X185925885Y-110768571D01*
X185925883Y-110768571D01*
X185919849Y-110769163D01*
X185727321Y-110827290D01*
X185549751Y-110921706D01*
X185393901Y-111048814D01*
X185265708Y-111203773D01*
X185262822Y-111209110D01*
X185262821Y-111209112D01*
X185207039Y-111312280D01*
X185170055Y-111380680D01*
X185110585Y-111572797D01*
X185089563Y-111772806D01*
X185090112Y-111778839D01*
X185090112Y-111778843D01*
X185098119Y-111866827D01*
X185107790Y-111973089D01*
X185164572Y-112166018D01*
X185257746Y-112344243D01*
X185383763Y-112500976D01*
X185537823Y-112630248D01*
X185714058Y-112727134D01*
X185719839Y-112728968D01*
X185719844Y-112728970D01*
X185757993Y-112741071D01*
X185815943Y-112780105D01*
X185843590Y-112844272D01*
X185844500Y-112859267D01*
X185844500Y-118149821D01*
X185824815Y-118216860D01*
X185772011Y-118262615D01*
X185756338Y-118268529D01*
X185727321Y-118277290D01*
X185549751Y-118371706D01*
X185393901Y-118498814D01*
X185265708Y-118653773D01*
X185262822Y-118659110D01*
X185262821Y-118659112D01*
X185251798Y-118679500D01*
X185170055Y-118830680D01*
X185110585Y-119022797D01*
X185089563Y-119222806D01*
X151800500Y-119222806D01*
X151800500Y-110540862D01*
X152915497Y-110540862D01*
X152945134Y-110713340D01*
X153013654Y-110874373D01*
X153017921Y-110880171D01*
X153017922Y-110880173D01*
X153104175Y-110997376D01*
X153117383Y-111015324D01*
X153122874Y-111019989D01*
X153122875Y-111019990D01*
X153245261Y-111123965D01*
X153245264Y-111123967D01*
X153250755Y-111128632D01*
X153257172Y-111131909D01*
X153257174Y-111131910D01*
X153268200Y-111137540D01*
X153406616Y-111208219D01*
X153413612Y-111209931D01*
X153413615Y-111209932D01*
X153484763Y-111227341D01*
X153576606Y-111249815D01*
X153582114Y-111250157D01*
X153582116Y-111250157D01*
X153585744Y-111250382D01*
X153585748Y-111250382D01*
X153587648Y-111250500D01*
X153713822Y-111250500D01*
X153843828Y-111235343D01*
X153850595Y-111232887D01*
X153850598Y-111232886D01*
X154001557Y-111178090D01*
X154001558Y-111178089D01*
X154008331Y-111175631D01*
X154154685Y-111079677D01*
X154159637Y-111074449D01*
X154159640Y-111074447D01*
X154270087Y-110957857D01*
X154270089Y-110957855D01*
X154275040Y-110952628D01*
X154278656Y-110946403D01*
X154278658Y-110946400D01*
X154359322Y-110807525D01*
X154362939Y-110801298D01*
X154413667Y-110633807D01*
X154424503Y-110459138D01*
X154394866Y-110286660D01*
X154326346Y-110125627D01*
X154273340Y-110053600D01*
X154226888Y-109990479D01*
X154226886Y-109990477D01*
X154222617Y-109984676D01*
X154142216Y-109916370D01*
X154094739Y-109876035D01*
X154094736Y-109876033D01*
X154089245Y-109871368D01*
X154082828Y-109868091D01*
X154082826Y-109868090D01*
X153992388Y-109821910D01*
X153933384Y-109791781D01*
X153926388Y-109790069D01*
X153926385Y-109790068D01*
X153855237Y-109772659D01*
X153763394Y-109750185D01*
X153757886Y-109749843D01*
X153757884Y-109749843D01*
X153754256Y-109749618D01*
X153754252Y-109749618D01*
X153752352Y-109749500D01*
X153626178Y-109749500D01*
X153496172Y-109764657D01*
X153489405Y-109767113D01*
X153489402Y-109767114D01*
X153338443Y-109821910D01*
X153331669Y-109824369D01*
X153185315Y-109920323D01*
X153180363Y-109925551D01*
X153180360Y-109925553D01*
X153118855Y-109990479D01*
X153064960Y-110047372D01*
X153061344Y-110053597D01*
X153061342Y-110053600D01*
X153022875Y-110119827D01*
X152977061Y-110198702D01*
X152926333Y-110366193D01*
X152915497Y-110540862D01*
X151800500Y-110540862D01*
X151800500Y-107540862D01*
X152915497Y-107540862D01*
X152945134Y-107713340D01*
X153013654Y-107874373D01*
X153017921Y-107880171D01*
X153017922Y-107880173D01*
X153075092Y-107957857D01*
X153117383Y-108015324D01*
X153122874Y-108019989D01*
X153122875Y-108019990D01*
X153245261Y-108123965D01*
X153245264Y-108123967D01*
X153250755Y-108128632D01*
X153257172Y-108131909D01*
X153257174Y-108131910D01*
X153323616Y-108165837D01*
X153406616Y-108208219D01*
X153413612Y-108209931D01*
X153413615Y-108209932D01*
X153484763Y-108227341D01*
X153576606Y-108249815D01*
X153582114Y-108250157D01*
X153582116Y-108250157D01*
X153585744Y-108250382D01*
X153585748Y-108250382D01*
X153587648Y-108250500D01*
X153713822Y-108250500D01*
X153843828Y-108235343D01*
X153850595Y-108232887D01*
X153850598Y-108232886D01*
X154001557Y-108178090D01*
X154001558Y-108178089D01*
X154008331Y-108175631D01*
X154154685Y-108079677D01*
X154159637Y-108074449D01*
X154159640Y-108074447D01*
X154270087Y-107957857D01*
X154270089Y-107957855D01*
X154275040Y-107952628D01*
X154278656Y-107946403D01*
X154278658Y-107946400D01*
X154359322Y-107807525D01*
X154362939Y-107801298D01*
X154413667Y-107633807D01*
X154424503Y-107459138D01*
X154394866Y-107286660D01*
X154326346Y-107125627D01*
X154273340Y-107053600D01*
X154226888Y-106990479D01*
X154226886Y-106990477D01*
X154222617Y-106984676D01*
X154142216Y-106916370D01*
X154094739Y-106876035D01*
X154094736Y-106876033D01*
X154089245Y-106871368D01*
X154082828Y-106868091D01*
X154082826Y-106868090D01*
X153992388Y-106821910D01*
X153933384Y-106791781D01*
X153926388Y-106790069D01*
X153926385Y-106790068D01*
X153855237Y-106772659D01*
X153763394Y-106750185D01*
X153757886Y-106749843D01*
X153757884Y-106749843D01*
X153754256Y-106749618D01*
X153754252Y-106749618D01*
X153752352Y-106749500D01*
X153626178Y-106749500D01*
X153496172Y-106764657D01*
X153489405Y-106767113D01*
X153489402Y-106767114D01*
X153338443Y-106821910D01*
X153331669Y-106824369D01*
X153185315Y-106920323D01*
X153180363Y-106925551D01*
X153180360Y-106925553D01*
X153118855Y-106990479D01*
X153064960Y-107047372D01*
X153061344Y-107053597D01*
X153061342Y-107053600D01*
X153022875Y-107119827D01*
X152977061Y-107198702D01*
X152926333Y-107366193D01*
X152915497Y-107540862D01*
X151800500Y-107540862D01*
X151800500Y-101537139D01*
X151802384Y-101515606D01*
X151805136Y-101500000D01*
X153144341Y-101500000D01*
X153144813Y-101505395D01*
X153157782Y-101653623D01*
X153164937Y-101735408D01*
X153166336Y-101740631D01*
X153166337Y-101740634D01*
X153185675Y-101812806D01*
X153226097Y-101963663D01*
X153228384Y-101968567D01*
X153228386Y-101968573D01*
X153315631Y-102155669D01*
X153325965Y-102177829D01*
X153329068Y-102182260D01*
X153329073Y-102182268D01*
X153458399Y-102366966D01*
X153458403Y-102366970D01*
X153461505Y-102371401D01*
X153628599Y-102538495D01*
X153633030Y-102541597D01*
X153633034Y-102541601D01*
X153817732Y-102670927D01*
X153822171Y-102674035D01*
X153827082Y-102676325D01*
X154031427Y-102771614D01*
X154031433Y-102771616D01*
X154036337Y-102773903D01*
X154120137Y-102796357D01*
X154259366Y-102833663D01*
X154259369Y-102833664D01*
X154264592Y-102835063D01*
X154269979Y-102835534D01*
X154269983Y-102835535D01*
X154438335Y-102850264D01*
X154438338Y-102850264D01*
X154441034Y-102850500D01*
X154558966Y-102850500D01*
X154561662Y-102850264D01*
X154561665Y-102850264D01*
X154730017Y-102835535D01*
X154730021Y-102835534D01*
X154735408Y-102835063D01*
X154740631Y-102833664D01*
X154740634Y-102833663D01*
X154879863Y-102796357D01*
X154963663Y-102773903D01*
X154968567Y-102771616D01*
X154968573Y-102771614D01*
X155172918Y-102676325D01*
X155177829Y-102674035D01*
X155182268Y-102670927D01*
X155366966Y-102541601D01*
X155366970Y-102541597D01*
X155371401Y-102538495D01*
X155538495Y-102371401D01*
X155674035Y-102177830D01*
X155773903Y-101963663D01*
X155814325Y-101812806D01*
X155833663Y-101740634D01*
X155833664Y-101740631D01*
X155835063Y-101735408D01*
X155842219Y-101653623D01*
X155855187Y-101505395D01*
X155855659Y-101500000D01*
X155851161Y-101448584D01*
X155835535Y-101269983D01*
X155835534Y-101269979D01*
X155835063Y-101264592D01*
X155817154Y-101197752D01*
X155796357Y-101120137D01*
X155773903Y-101036337D01*
X155771616Y-101031433D01*
X155771614Y-101031427D01*
X155676325Y-100827082D01*
X155674035Y-100822171D01*
X155667506Y-100812846D01*
X155632132Y-100762326D01*
X158852667Y-100762326D01*
X158905168Y-100958264D01*
X158908857Y-100968397D01*
X159004110Y-101172667D01*
X159009508Y-101182017D01*
X159138784Y-101366643D01*
X159145719Y-101374907D01*
X159305091Y-101534279D01*
X159313357Y-101541215D01*
X159497992Y-101670498D01*
X159507324Y-101675886D01*
X159711603Y-101771143D01*
X159721736Y-101774832D01*
X159912779Y-101826022D01*
X159926653Y-101825691D01*
X159930000Y-101817875D01*
X159930000Y-101812806D01*
X160430000Y-101812806D01*
X160433910Y-101826123D01*
X160442326Y-101827333D01*
X160638264Y-101774832D01*
X160648397Y-101771143D01*
X160852676Y-101675886D01*
X160862008Y-101670498D01*
X161046643Y-101541215D01*
X161054909Y-101534279D01*
X161214281Y-101374907D01*
X161221216Y-101366643D01*
X161350492Y-101182017D01*
X161355890Y-101172667D01*
X161447656Y-100975876D01*
X161493829Y-100923437D01*
X161561022Y-100904285D01*
X161627903Y-100924501D01*
X161672648Y-100976368D01*
X161719369Y-101077714D01*
X161722647Y-101082352D01*
X161809117Y-101204704D01*
X161841405Y-101250391D01*
X161992865Y-101397937D01*
X161997588Y-101401093D01*
X161997592Y-101401096D01*
X162068663Y-101448584D01*
X162168677Y-101515411D01*
X162362953Y-101598878D01*
X162398277Y-101606871D01*
X162563638Y-101644289D01*
X162563642Y-101644290D01*
X162569186Y-101645544D01*
X162695315Y-101650500D01*
X162774789Y-101653623D01*
X162774791Y-101653623D01*
X162780470Y-101653846D01*
X162786090Y-101653031D01*
X162786092Y-101653031D01*
X162984103Y-101624320D01*
X162984104Y-101624320D01*
X162989730Y-101623504D01*
X163008588Y-101617103D01*
X163184565Y-101557367D01*
X163184568Y-101557366D01*
X163189955Y-101555537D01*
X163194916Y-101552759D01*
X163194922Y-101552756D01*
X163350334Y-101465720D01*
X163374442Y-101452219D01*
X163412165Y-101420846D01*
X163532645Y-101320644D01*
X163537012Y-101317012D01*
X163584955Y-101259366D01*
X163668584Y-101158813D01*
X163668585Y-101158811D01*
X163672219Y-101154442D01*
X163771946Y-100976368D01*
X163772756Y-100974922D01*
X163772759Y-100974916D01*
X163775537Y-100969955D01*
X163799520Y-100899305D01*
X163841675Y-100775118D01*
X163843504Y-100769730D01*
X163845954Y-100752831D01*
X163867820Y-100602033D01*
X163896921Y-100538512D01*
X163950225Y-100504346D01*
X164030974Y-100504346D01*
X164084347Y-100538736D01*
X164113296Y-100602327D01*
X164114271Y-100611707D01*
X164118796Y-100680749D01*
X164170845Y-100885690D01*
X164173219Y-100890841D01*
X164173221Y-100890845D01*
X164211981Y-100974922D01*
X164259369Y-101077714D01*
X164262647Y-101082352D01*
X164349117Y-101204704D01*
X164381405Y-101250391D01*
X164532865Y-101397937D01*
X164537588Y-101401093D01*
X164537592Y-101401096D01*
X164608663Y-101448584D01*
X164708677Y-101515411D01*
X164902953Y-101598878D01*
X164938277Y-101606871D01*
X165103638Y-101644289D01*
X165103642Y-101644290D01*
X165109186Y-101645544D01*
X165235315Y-101650500D01*
X165314789Y-101653623D01*
X165314791Y-101653623D01*
X165320470Y-101653846D01*
X165326090Y-101653031D01*
X165326092Y-101653031D01*
X165524103Y-101624320D01*
X165524104Y-101624320D01*
X165529730Y-101623504D01*
X165548588Y-101617103D01*
X165724565Y-101557367D01*
X165724568Y-101557366D01*
X165729955Y-101555537D01*
X165734916Y-101552759D01*
X165734922Y-101552756D01*
X165890334Y-101465720D01*
X165914442Y-101452219D01*
X165952165Y-101420846D01*
X166072645Y-101320644D01*
X166077012Y-101317012D01*
X166124955Y-101259366D01*
X166208584Y-101158813D01*
X166208585Y-101158811D01*
X166212219Y-101154442D01*
X166311946Y-100976368D01*
X166312756Y-100974922D01*
X166312759Y-100974916D01*
X166315537Y-100969955D01*
X166339520Y-100899305D01*
X166381675Y-100775118D01*
X166383504Y-100769730D01*
X166396406Y-100680749D01*
X166402783Y-100636769D01*
X166431884Y-100573248D01*
X166490707Y-100535543D01*
X166560577Y-100535627D01*
X166619310Y-100573471D01*
X166648259Y-100637061D01*
X166649500Y-100654562D01*
X166649500Y-101394646D01*
X166652618Y-101420846D01*
X166698061Y-101523153D01*
X166777287Y-101602241D01*
X166787758Y-101606870D01*
X166787759Y-101606871D01*
X166871147Y-101643737D01*
X166871149Y-101643738D01*
X166879673Y-101647506D01*
X166905354Y-101650500D01*
X168694646Y-101650500D01*
X168698300Y-101650065D01*
X168698302Y-101650065D01*
X168703266Y-101649474D01*
X168720846Y-101647382D01*
X168823153Y-101601939D01*
X168902241Y-101522713D01*
X168906871Y-101512241D01*
X168943737Y-101428853D01*
X168943738Y-101428851D01*
X168947506Y-101420327D01*
X168950500Y-101394646D01*
X168950500Y-100762326D01*
X172852667Y-100762326D01*
X172905168Y-100958264D01*
X172908857Y-100968397D01*
X173004110Y-101172667D01*
X173009508Y-101182017D01*
X173138784Y-101366643D01*
X173145719Y-101374907D01*
X173305091Y-101534279D01*
X173313357Y-101541215D01*
X173497992Y-101670498D01*
X173507324Y-101675886D01*
X173711603Y-101771143D01*
X173721736Y-101774832D01*
X173912779Y-101826022D01*
X173926653Y-101825691D01*
X173930000Y-101817875D01*
X173930000Y-101812806D01*
X174430000Y-101812806D01*
X174433910Y-101826123D01*
X174442326Y-101827333D01*
X174638264Y-101774832D01*
X174648397Y-101771143D01*
X174852676Y-101675886D01*
X174862008Y-101670498D01*
X175046643Y-101541215D01*
X175054909Y-101534279D01*
X175214281Y-101374907D01*
X175221216Y-101366643D01*
X175350492Y-101182017D01*
X175355890Y-101172667D01*
X175447656Y-100975876D01*
X175493829Y-100923437D01*
X175561022Y-100904285D01*
X175627903Y-100924501D01*
X175672648Y-100976368D01*
X175719369Y-101077714D01*
X175722647Y-101082352D01*
X175809117Y-101204704D01*
X175841405Y-101250391D01*
X175992865Y-101397937D01*
X175997588Y-101401093D01*
X175997592Y-101401096D01*
X176068663Y-101448584D01*
X176168677Y-101515411D01*
X176362953Y-101598878D01*
X176398277Y-101606871D01*
X176563638Y-101644289D01*
X176563642Y-101644290D01*
X176569186Y-101645544D01*
X176695315Y-101650500D01*
X176774789Y-101653623D01*
X176774791Y-101653623D01*
X176780470Y-101653846D01*
X176786090Y-101653031D01*
X176786092Y-101653031D01*
X176984103Y-101624320D01*
X176984104Y-101624320D01*
X176989730Y-101623504D01*
X177008588Y-101617103D01*
X177184565Y-101557367D01*
X177184568Y-101557366D01*
X177189955Y-101555537D01*
X177194916Y-101552759D01*
X177194922Y-101552756D01*
X177350334Y-101465720D01*
X177374442Y-101452219D01*
X177412165Y-101420846D01*
X177532645Y-101320644D01*
X177537012Y-101317012D01*
X177584955Y-101259366D01*
X177668584Y-101158813D01*
X177668585Y-101158811D01*
X177672219Y-101154442D01*
X177771946Y-100976368D01*
X177772756Y-100974922D01*
X177772759Y-100974916D01*
X177775537Y-100969955D01*
X177799520Y-100899305D01*
X177841675Y-100775118D01*
X177843504Y-100769730D01*
X177845954Y-100752831D01*
X177867820Y-100602033D01*
X177896921Y-100538512D01*
X177950225Y-100504346D01*
X178030974Y-100504346D01*
X178084347Y-100538736D01*
X178113296Y-100602327D01*
X178114271Y-100611707D01*
X178118796Y-100680749D01*
X178170845Y-100885690D01*
X178173219Y-100890841D01*
X178173221Y-100890845D01*
X178211981Y-100974922D01*
X178259369Y-101077714D01*
X178262647Y-101082352D01*
X178349117Y-101204704D01*
X178381405Y-101250391D01*
X178532865Y-101397937D01*
X178537588Y-101401093D01*
X178537592Y-101401096D01*
X178608663Y-101448584D01*
X178708677Y-101515411D01*
X178902953Y-101598878D01*
X178938277Y-101606871D01*
X179103638Y-101644289D01*
X179103642Y-101644290D01*
X179109186Y-101645544D01*
X179235315Y-101650500D01*
X179314789Y-101653623D01*
X179314791Y-101653623D01*
X179320470Y-101653846D01*
X179326090Y-101653031D01*
X179326092Y-101653031D01*
X179524103Y-101624320D01*
X179524104Y-101624320D01*
X179529730Y-101623504D01*
X179548588Y-101617103D01*
X179724565Y-101557367D01*
X179724568Y-101557366D01*
X179729955Y-101555537D01*
X179734916Y-101552759D01*
X179734922Y-101552756D01*
X179890334Y-101465720D01*
X179914442Y-101452219D01*
X179952165Y-101420846D01*
X180072645Y-101320644D01*
X180077012Y-101317012D01*
X180124955Y-101259366D01*
X180208584Y-101158813D01*
X180208585Y-101158811D01*
X180212219Y-101154442D01*
X180311946Y-100976368D01*
X180312756Y-100974922D01*
X180312759Y-100974916D01*
X180315537Y-100969955D01*
X180339520Y-100899305D01*
X180381675Y-100775118D01*
X180383504Y-100769730D01*
X180396406Y-100680749D01*
X180402783Y-100636769D01*
X180431884Y-100573248D01*
X180490707Y-100535543D01*
X180560577Y-100535627D01*
X180619310Y-100573471D01*
X180648259Y-100637061D01*
X180649500Y-100654562D01*
X180649500Y-101394646D01*
X180652618Y-101420846D01*
X180698061Y-101523153D01*
X180777287Y-101602241D01*
X180787758Y-101606870D01*
X180787759Y-101606871D01*
X180871147Y-101643737D01*
X180871149Y-101643738D01*
X180879673Y-101647506D01*
X180905354Y-101650500D01*
X182694646Y-101650500D01*
X182698300Y-101650065D01*
X182698302Y-101650065D01*
X182703266Y-101649474D01*
X182720846Y-101647382D01*
X182823153Y-101601939D01*
X182902241Y-101522713D01*
X182906871Y-101512241D01*
X182912283Y-101500000D01*
X188144341Y-101500000D01*
X188144813Y-101505395D01*
X188157782Y-101653623D01*
X188164937Y-101735408D01*
X188166336Y-101740631D01*
X188166337Y-101740634D01*
X188185675Y-101812806D01*
X188226097Y-101963663D01*
X188228384Y-101968567D01*
X188228386Y-101968573D01*
X188315631Y-102155669D01*
X188325965Y-102177829D01*
X188329068Y-102182260D01*
X188329073Y-102182268D01*
X188458399Y-102366966D01*
X188458403Y-102366970D01*
X188461505Y-102371401D01*
X188628599Y-102538495D01*
X188633030Y-102541597D01*
X188633034Y-102541601D01*
X188817732Y-102670927D01*
X188822171Y-102674035D01*
X188827082Y-102676325D01*
X189031427Y-102771614D01*
X189031433Y-102771616D01*
X189036337Y-102773903D01*
X189120137Y-102796357D01*
X189259366Y-102833663D01*
X189259369Y-102833664D01*
X189264592Y-102835063D01*
X189269979Y-102835534D01*
X189269983Y-102835535D01*
X189438335Y-102850264D01*
X189438338Y-102850264D01*
X189441034Y-102850500D01*
X189558966Y-102850500D01*
X189561662Y-102850264D01*
X189561665Y-102850264D01*
X189730017Y-102835535D01*
X189730021Y-102835534D01*
X189735408Y-102835063D01*
X189740631Y-102833664D01*
X189740634Y-102833663D01*
X189879863Y-102796357D01*
X189963663Y-102773903D01*
X189968567Y-102771616D01*
X189968573Y-102771614D01*
X190172918Y-102676325D01*
X190177829Y-102674035D01*
X190182268Y-102670927D01*
X190366966Y-102541601D01*
X190366970Y-102541597D01*
X190371401Y-102538495D01*
X190538495Y-102371401D01*
X190674035Y-102177830D01*
X190773903Y-101963663D01*
X190814325Y-101812806D01*
X190833663Y-101740634D01*
X190833664Y-101740631D01*
X190835063Y-101735408D01*
X190842219Y-101653623D01*
X190855187Y-101505395D01*
X190855659Y-101500000D01*
X190851161Y-101448584D01*
X190835535Y-101269983D01*
X190835534Y-101269979D01*
X190835063Y-101264592D01*
X190817154Y-101197752D01*
X190796357Y-101120137D01*
X190773903Y-101036337D01*
X190771616Y-101031433D01*
X190771614Y-101031427D01*
X190676325Y-100827082D01*
X190674035Y-100822171D01*
X190667506Y-100812846D01*
X190541601Y-100633034D01*
X190541597Y-100633030D01*
X190538495Y-100628599D01*
X190371401Y-100461505D01*
X190366970Y-100458403D01*
X190366966Y-100458399D01*
X190182268Y-100329073D01*
X190182266Y-100329072D01*
X190177829Y-100325965D01*
X190155669Y-100315631D01*
X189968573Y-100228386D01*
X189968567Y-100228384D01*
X189963663Y-100226097D01*
X189879863Y-100203643D01*
X189740634Y-100166337D01*
X189740631Y-100166336D01*
X189735408Y-100164937D01*
X189730021Y-100164466D01*
X189730017Y-100164465D01*
X189561665Y-100149736D01*
X189561662Y-100149736D01*
X189558966Y-100149500D01*
X189441034Y-100149500D01*
X189438338Y-100149736D01*
X189438335Y-100149736D01*
X189269983Y-100164465D01*
X189269979Y-100164466D01*
X189264592Y-100164937D01*
X189259369Y-100166336D01*
X189259366Y-100166337D01*
X189120137Y-100203643D01*
X189036337Y-100226097D01*
X189031433Y-100228384D01*
X189031427Y-100228386D01*
X188844331Y-100315631D01*
X188822171Y-100325965D01*
X188817734Y-100329072D01*
X188817732Y-100329073D01*
X188633034Y-100458399D01*
X188633030Y-100458403D01*
X188628599Y-100461505D01*
X188461505Y-100628599D01*
X188325965Y-100822170D01*
X188226097Y-101036337D01*
X188203643Y-101120137D01*
X188182847Y-101197752D01*
X188164937Y-101264592D01*
X188164466Y-101269979D01*
X188164465Y-101269983D01*
X188148839Y-101448584D01*
X188144341Y-101500000D01*
X182912283Y-101500000D01*
X182943737Y-101428853D01*
X182943738Y-101428851D01*
X182947506Y-101420327D01*
X182950500Y-101394646D01*
X182950500Y-99605354D01*
X182947382Y-99579154D01*
X182901939Y-99476847D01*
X182822713Y-99397759D01*
X182812242Y-99393130D01*
X182812241Y-99393129D01*
X182728853Y-99356263D01*
X182728851Y-99356262D01*
X182720327Y-99352494D01*
X182694646Y-99349500D01*
X180905354Y-99349500D01*
X180901700Y-99349935D01*
X180901698Y-99349935D01*
X180896734Y-99350526D01*
X180879154Y-99352618D01*
X180776847Y-99398061D01*
X180697759Y-99477287D01*
X180693130Y-99487758D01*
X180693129Y-99487759D01*
X180658876Y-99565238D01*
X180652494Y-99579673D01*
X180649500Y-99605354D01*
X180649500Y-100342727D01*
X180629815Y-100409766D01*
X180577011Y-100455521D01*
X180507853Y-100465465D01*
X180444297Y-100436440D01*
X180406523Y-100377662D01*
X180402020Y-100354073D01*
X180399227Y-100323675D01*
X180396081Y-100289440D01*
X180338686Y-100085931D01*
X180245165Y-99896290D01*
X180118651Y-99726867D01*
X180114481Y-99723012D01*
X180114478Y-99723009D01*
X180008552Y-99625093D01*
X179963381Y-99583337D01*
X179957574Y-99579673D01*
X179789363Y-99473539D01*
X179789361Y-99473538D01*
X179784554Y-99470505D01*
X179588160Y-99392152D01*
X179582579Y-99391042D01*
X179582576Y-99391041D01*
X179484467Y-99371526D01*
X179380775Y-99350901D01*
X179375088Y-99350827D01*
X179375083Y-99350826D01*
X179175034Y-99348207D01*
X179175029Y-99348207D01*
X179169346Y-99348133D01*
X179163742Y-99349096D01*
X179163741Y-99349096D01*
X178966550Y-99382979D01*
X178966547Y-99382980D01*
X178960953Y-99383941D01*
X178762575Y-99457127D01*
X178757697Y-99460029D01*
X178757695Y-99460030D01*
X178585740Y-99562332D01*
X178585737Y-99562334D01*
X178580856Y-99565238D01*
X178421881Y-99704655D01*
X178418362Y-99709119D01*
X178418359Y-99709122D01*
X178400782Y-99731419D01*
X178290976Y-99870708D01*
X178192523Y-100057836D01*
X178190837Y-100063267D01*
X178190835Y-100063271D01*
X178140712Y-100224695D01*
X178129820Y-100259773D01*
X178112851Y-100403140D01*
X178085425Y-100467398D01*
X178030974Y-100504346D01*
X177950225Y-100504346D01*
X177950667Y-100504063D01*
X177898057Y-100472081D01*
X177867453Y-100409271D01*
X177866232Y-100399909D01*
X177859227Y-100323675D01*
X177856081Y-100289440D01*
X177798686Y-100085931D01*
X177705165Y-99896290D01*
X177578651Y-99726867D01*
X177574481Y-99723012D01*
X177574478Y-99723009D01*
X177468552Y-99625093D01*
X177423381Y-99583337D01*
X177417574Y-99579673D01*
X177249363Y-99473539D01*
X177249361Y-99473538D01*
X177244554Y-99470505D01*
X177048160Y-99392152D01*
X177042579Y-99391042D01*
X177042576Y-99391041D01*
X176944467Y-99371526D01*
X176840775Y-99350901D01*
X176835088Y-99350827D01*
X176835083Y-99350826D01*
X176635034Y-99348207D01*
X176635029Y-99348207D01*
X176629346Y-99348133D01*
X176623742Y-99349096D01*
X176623741Y-99349096D01*
X176426550Y-99382979D01*
X176426547Y-99382980D01*
X176420953Y-99383941D01*
X176222575Y-99457127D01*
X176217697Y-99460029D01*
X176217695Y-99460030D01*
X176045740Y-99562332D01*
X176045737Y-99562334D01*
X176040856Y-99565238D01*
X175881881Y-99704655D01*
X175878362Y-99709119D01*
X175878359Y-99709122D01*
X175860782Y-99731419D01*
X175750976Y-99870708D01*
X175748325Y-99875747D01*
X175668685Y-100027117D01*
X175620050Y-100077281D01*
X175552015Y-100093187D01*
X175486181Y-100069786D01*
X175446565Y-100021786D01*
X175355890Y-99827333D01*
X175350492Y-99817983D01*
X175221216Y-99633357D01*
X175214281Y-99625093D01*
X175054909Y-99465721D01*
X175046643Y-99458785D01*
X174862008Y-99329502D01*
X174852676Y-99324114D01*
X174648397Y-99228857D01*
X174638264Y-99225168D01*
X174447221Y-99173978D01*
X174433347Y-99174309D01*
X174430000Y-99182125D01*
X174430000Y-101812806D01*
X173930000Y-101812806D01*
X173930000Y-100767830D01*
X173925596Y-100752831D01*
X173924226Y-100751644D01*
X173916668Y-100750000D01*
X172867194Y-100750000D01*
X172853877Y-100753910D01*
X172852667Y-100762326D01*
X168950500Y-100762326D01*
X168950500Y-100232779D01*
X172853978Y-100232779D01*
X172854309Y-100246653D01*
X172862125Y-100250000D01*
X173912170Y-100250000D01*
X173927169Y-100245596D01*
X173928356Y-100244226D01*
X173930000Y-100236668D01*
X173930000Y-99187194D01*
X173926090Y-99173877D01*
X173917674Y-99172667D01*
X173721736Y-99225168D01*
X173711603Y-99228857D01*
X173507333Y-99324110D01*
X173497983Y-99329508D01*
X173313357Y-99458784D01*
X173305093Y-99465719D01*
X173145719Y-99625093D01*
X173138784Y-99633357D01*
X173009508Y-99817983D01*
X173004110Y-99827333D01*
X172908857Y-100031603D01*
X172905168Y-100041736D01*
X172853978Y-100232779D01*
X168950500Y-100232779D01*
X168950500Y-99605354D01*
X168947382Y-99579154D01*
X168901939Y-99476847D01*
X168822713Y-99397759D01*
X168812242Y-99393130D01*
X168812241Y-99393129D01*
X168728853Y-99356263D01*
X168728851Y-99356262D01*
X168720327Y-99352494D01*
X168694646Y-99349500D01*
X166905354Y-99349500D01*
X166901700Y-99349935D01*
X166901698Y-99349935D01*
X166896734Y-99350526D01*
X166879154Y-99352618D01*
X166776847Y-99398061D01*
X166697759Y-99477287D01*
X166693130Y-99487758D01*
X166693129Y-99487759D01*
X166658876Y-99565238D01*
X166652494Y-99579673D01*
X166649500Y-99605354D01*
X166649500Y-100342727D01*
X166629815Y-100409766D01*
X166577011Y-100455521D01*
X166507853Y-100465465D01*
X166444297Y-100436440D01*
X166406523Y-100377662D01*
X166402020Y-100354073D01*
X166399227Y-100323675D01*
X166396081Y-100289440D01*
X166338686Y-100085931D01*
X166245165Y-99896290D01*
X166118651Y-99726867D01*
X166114481Y-99723012D01*
X166114478Y-99723009D01*
X166008552Y-99625093D01*
X165963381Y-99583337D01*
X165957574Y-99579673D01*
X165789363Y-99473539D01*
X165789361Y-99473538D01*
X165784554Y-99470505D01*
X165588160Y-99392152D01*
X165582579Y-99391042D01*
X165582576Y-99391041D01*
X165484467Y-99371526D01*
X165380775Y-99350901D01*
X165375088Y-99350827D01*
X165375083Y-99350826D01*
X165175034Y-99348207D01*
X165175029Y-99348207D01*
X165169346Y-99348133D01*
X165163742Y-99349096D01*
X165163741Y-99349096D01*
X164966550Y-99382979D01*
X164966547Y-99382980D01*
X164960953Y-99383941D01*
X164762575Y-99457127D01*
X164757697Y-99460029D01*
X164757695Y-99460030D01*
X164585740Y-99562332D01*
X164585737Y-99562334D01*
X164580856Y-99565238D01*
X164421881Y-99704655D01*
X164418362Y-99709119D01*
X164418359Y-99709122D01*
X164400782Y-99731419D01*
X164290976Y-99870708D01*
X164192523Y-100057836D01*
X164190837Y-100063267D01*
X164190835Y-100063271D01*
X164140712Y-100224695D01*
X164129820Y-100259773D01*
X164112851Y-100403140D01*
X164085425Y-100467398D01*
X164030974Y-100504346D01*
X163950225Y-100504346D01*
X163950667Y-100504063D01*
X163898057Y-100472081D01*
X163867453Y-100409271D01*
X163866232Y-100399909D01*
X163859227Y-100323675D01*
X163856081Y-100289440D01*
X163798686Y-100085931D01*
X163705165Y-99896290D01*
X163578651Y-99726867D01*
X163574481Y-99723012D01*
X163574478Y-99723009D01*
X163468552Y-99625093D01*
X163423381Y-99583337D01*
X163417574Y-99579673D01*
X163249363Y-99473539D01*
X163249361Y-99473538D01*
X163244554Y-99470505D01*
X163048160Y-99392152D01*
X163042579Y-99391042D01*
X163042576Y-99391041D01*
X162944467Y-99371526D01*
X162840775Y-99350901D01*
X162835088Y-99350827D01*
X162835083Y-99350826D01*
X162635034Y-99348207D01*
X162635029Y-99348207D01*
X162629346Y-99348133D01*
X162623742Y-99349096D01*
X162623741Y-99349096D01*
X162426550Y-99382979D01*
X162426547Y-99382980D01*
X162420953Y-99383941D01*
X162222575Y-99457127D01*
X162217697Y-99460029D01*
X162217695Y-99460030D01*
X162045740Y-99562332D01*
X162045737Y-99562334D01*
X162040856Y-99565238D01*
X161881881Y-99704655D01*
X161878362Y-99709119D01*
X161878359Y-99709122D01*
X161860782Y-99731419D01*
X161750976Y-99870708D01*
X161748325Y-99875747D01*
X161668685Y-100027117D01*
X161620050Y-100077281D01*
X161552015Y-100093187D01*
X161486181Y-100069786D01*
X161446565Y-100021786D01*
X161355890Y-99827333D01*
X161350492Y-99817983D01*
X161221216Y-99633357D01*
X161214281Y-99625093D01*
X161054909Y-99465721D01*
X161046643Y-99458785D01*
X160862008Y-99329502D01*
X160852676Y-99324114D01*
X160648397Y-99228857D01*
X160638264Y-99225168D01*
X160447221Y-99173978D01*
X160433347Y-99174309D01*
X160430000Y-99182125D01*
X160430000Y-101812806D01*
X159930000Y-101812806D01*
X159930000Y-100767830D01*
X159925596Y-100752831D01*
X159924226Y-100751644D01*
X159916668Y-100750000D01*
X158867194Y-100750000D01*
X158853877Y-100753910D01*
X158852667Y-100762326D01*
X155632132Y-100762326D01*
X155541601Y-100633034D01*
X155541597Y-100633030D01*
X155538495Y-100628599D01*
X155371401Y-100461505D01*
X155366970Y-100458403D01*
X155366966Y-100458399D01*
X155182268Y-100329073D01*
X155182266Y-100329072D01*
X155177829Y-100325965D01*
X155155669Y-100315631D01*
X154977994Y-100232779D01*
X158853978Y-100232779D01*
X158854309Y-100246653D01*
X158862125Y-100250000D01*
X159912170Y-100250000D01*
X159927169Y-100245596D01*
X159928356Y-100244226D01*
X159930000Y-100236668D01*
X159930000Y-99187194D01*
X159926090Y-99173877D01*
X159917674Y-99172667D01*
X159721736Y-99225168D01*
X159711603Y-99228857D01*
X159507333Y-99324110D01*
X159497983Y-99329508D01*
X159313357Y-99458784D01*
X159305093Y-99465719D01*
X159145719Y-99625093D01*
X159138784Y-99633357D01*
X159009508Y-99817983D01*
X159004110Y-99827333D01*
X158908857Y-100031603D01*
X158905168Y-100041736D01*
X158853978Y-100232779D01*
X154977994Y-100232779D01*
X154968573Y-100228386D01*
X154968567Y-100228384D01*
X154963663Y-100226097D01*
X154879863Y-100203643D01*
X154740634Y-100166337D01*
X154740631Y-100166336D01*
X154735408Y-100164937D01*
X154730021Y-100164466D01*
X154730017Y-100164465D01*
X154561665Y-100149736D01*
X154561662Y-100149736D01*
X154558966Y-100149500D01*
X154441034Y-100149500D01*
X154438338Y-100149736D01*
X154438335Y-100149736D01*
X154269983Y-100164465D01*
X154269979Y-100164466D01*
X154264592Y-100164937D01*
X154259369Y-100166336D01*
X154259366Y-100166337D01*
X154120137Y-100203643D01*
X154036337Y-100226097D01*
X154031433Y-100228384D01*
X154031427Y-100228386D01*
X153844331Y-100315631D01*
X153822171Y-100325965D01*
X153817734Y-100329072D01*
X153817732Y-100329073D01*
X153633034Y-100458399D01*
X153633030Y-100458403D01*
X153628599Y-100461505D01*
X153461505Y-100628599D01*
X153325965Y-100822170D01*
X153226097Y-101036337D01*
X153203643Y-101120137D01*
X153182847Y-101197752D01*
X153164937Y-101264592D01*
X153164466Y-101269979D01*
X153164465Y-101269983D01*
X153148839Y-101448584D01*
X153144341Y-101500000D01*
X151805136Y-101500000D01*
X151803252Y-101489315D01*
X151803252Y-101479661D01*
X151802425Y-101465720D01*
X151803388Y-101448584D01*
X151813418Y-101269983D01*
X151817084Y-101204704D01*
X151818641Y-101190887D01*
X151867015Y-100906174D01*
X151870109Y-100892616D01*
X151891681Y-100817740D01*
X151943733Y-100637061D01*
X151950060Y-100615101D01*
X151954653Y-100601976D01*
X152065170Y-100335166D01*
X152071203Y-100322638D01*
X152148661Y-100182487D01*
X152210903Y-100069868D01*
X152218298Y-100058100D01*
X152385417Y-99822569D01*
X152394086Y-99811697D01*
X152586525Y-99596358D01*
X152596358Y-99586525D01*
X152811697Y-99394086D01*
X152822569Y-99385417D01*
X153058100Y-99218298D01*
X153069868Y-99210903D01*
X153182487Y-99148661D01*
X153322638Y-99071203D01*
X153335166Y-99065170D01*
X153601976Y-98954653D01*
X153615101Y-98950060D01*
X153892616Y-98870109D01*
X153906174Y-98867015D01*
X154190887Y-98818641D01*
X154204704Y-98817084D01*
X154365268Y-98808066D01*
X154465722Y-98802425D01*
X154479661Y-98803252D01*
X154489315Y-98803252D01*
X154500000Y-98805136D01*
X154515609Y-98802384D01*
X154537139Y-98800500D01*
X189462861Y-98800500D01*
X189484391Y-98802384D01*
G37*
%TD.AperFunction*%
%TD*%
M02*
