%TF.GenerationSoftware,KiCad,Pcbnew,6.0.5-a6ca702e91~116~ubuntu20.04.1*%
%TF.CreationDate,2023-02-10T18:46:25+05:30*%
%TF.ProjectId,STM32_kicad,53544d33-325f-46b6-9963-61642e6b6963,rev?*%
%TF.SameCoordinates,Original*%
%TF.FileFunction,Copper,L1,Top*%
%TF.FilePolarity,Positive*%
%FSLAX46Y46*%
G04 Gerber Fmt 4.6, Leading zero omitted, Abs format (unit mm)*
G04 Created by KiCad (PCBNEW 6.0.5-a6ca702e91~116~ubuntu20.04.1) date 2023-02-10 18:46:25*
%MOMM*%
%LPD*%
G01*
G04 APERTURE LIST*
G04 Aperture macros list*
%AMRoundRect*
0 Rectangle with rounded corners*
0 $1 Rounding radius*
0 $2 $3 $4 $5 $6 $7 $8 $9 X,Y pos of 4 corners*
0 Add a 4 corners polygon primitive as box body*
4,1,4,$2,$3,$4,$5,$6,$7,$8,$9,$2,$3,0*
0 Add four circle primitives for the rounded corners*
1,1,$1+$1,$2,$3*
1,1,$1+$1,$4,$5*
1,1,$1+$1,$6,$7*
1,1,$1+$1,$8,$9*
0 Add four rect primitives between the rounded corners*
20,1,$1+$1,$2,$3,$4,$5,0*
20,1,$1+$1,$4,$5,$6,$7,0*
20,1,$1+$1,$6,$7,$8,$9,0*
20,1,$1+$1,$8,$9,$2,$3,0*%
G04 Aperture macros list end*
%TA.AperFunction,SMDPad,CuDef*%
%ADD10RoundRect,0.147500X-0.172500X0.147500X-0.172500X-0.147500X0.172500X-0.147500X0.172500X0.147500X0*%
%TD*%
%TA.AperFunction,SMDPad,CuDef*%
%ADD11R,1.500000X0.700000*%
%TD*%
%TA.AperFunction,SMDPad,CuDef*%
%ADD12R,0.800000X1.000000*%
%TD*%
%TA.AperFunction,SMDPad,CuDef*%
%ADD13R,1.200000X1.400000*%
%TD*%
%TA.AperFunction,SMDPad,CuDef*%
%ADD14RoundRect,0.140000X0.170000X-0.140000X0.170000X0.140000X-0.170000X0.140000X-0.170000X-0.140000X0*%
%TD*%
%TA.AperFunction,ComponentPad*%
%ADD15R,1.700000X1.700000*%
%TD*%
%TA.AperFunction,ComponentPad*%
%ADD16O,1.700000X1.700000*%
%TD*%
%TA.AperFunction,SMDPad,CuDef*%
%ADD17RoundRect,0.135000X-0.135000X-0.185000X0.135000X-0.185000X0.135000X0.185000X-0.135000X0.185000X0*%
%TD*%
%TA.AperFunction,SMDPad,CuDef*%
%ADD18RoundRect,0.135000X-0.185000X0.135000X-0.185000X-0.135000X0.185000X-0.135000X0.185000X0.135000X0*%
%TD*%
%TA.AperFunction,SMDPad,CuDef*%
%ADD19RoundRect,0.250000X-0.250000X-0.475000X0.250000X-0.475000X0.250000X0.475000X-0.250000X0.475000X0*%
%TD*%
%TA.AperFunction,SMDPad,CuDef*%
%ADD20RoundRect,0.140000X0.140000X0.170000X-0.140000X0.170000X-0.140000X-0.170000X0.140000X-0.170000X0*%
%TD*%
%TA.AperFunction,SMDPad,CuDef*%
%ADD21RoundRect,0.250000X0.475000X-0.250000X0.475000X0.250000X-0.475000X0.250000X-0.475000X-0.250000X0*%
%TD*%
%TA.AperFunction,SMDPad,CuDef*%
%ADD22RoundRect,0.140000X-0.170000X0.140000X-0.170000X-0.140000X0.170000X-0.140000X0.170000X0.140000X0*%
%TD*%
%TA.AperFunction,SMDPad,CuDef*%
%ADD23R,1.500000X2.000000*%
%TD*%
%TA.AperFunction,SMDPad,CuDef*%
%ADD24R,3.800000X2.000000*%
%TD*%
%TA.AperFunction,SMDPad,CuDef*%
%ADD25RoundRect,0.218750X-0.256250X0.218750X-0.256250X-0.218750X0.256250X-0.218750X0.256250X0.218750X0*%
%TD*%
%TA.AperFunction,SMDPad,CuDef*%
%ADD26RoundRect,0.140000X-0.140000X-0.170000X0.140000X-0.170000X0.140000X0.170000X-0.140000X0.170000X0*%
%TD*%
%TA.AperFunction,SMDPad,CuDef*%
%ADD27RoundRect,0.225000X-0.225000X-0.250000X0.225000X-0.250000X0.225000X0.250000X-0.225000X0.250000X0*%
%TD*%
%TA.AperFunction,SMDPad,CuDef*%
%ADD28RoundRect,0.135000X0.135000X0.185000X-0.135000X0.185000X-0.135000X-0.185000X0.135000X-0.185000X0*%
%TD*%
%TA.AperFunction,SMDPad,CuDef*%
%ADD29RoundRect,0.075000X-0.662500X-0.075000X0.662500X-0.075000X0.662500X0.075000X-0.662500X0.075000X0*%
%TD*%
%TA.AperFunction,SMDPad,CuDef*%
%ADD30RoundRect,0.075000X-0.075000X-0.662500X0.075000X-0.662500X0.075000X0.662500X-0.075000X0.662500X0*%
%TD*%
%TA.AperFunction,ComponentPad*%
%ADD31O,2.000000X1.450000*%
%TD*%
%TA.AperFunction,ComponentPad*%
%ADD32O,1.800000X1.150000*%
%TD*%
%TA.AperFunction,SMDPad,CuDef*%
%ADD33R,1.300000X0.450000*%
%TD*%
%TA.AperFunction,ViaPad*%
%ADD34C,0.700000*%
%TD*%
%TA.AperFunction,Conductor*%
%ADD35C,0.300000*%
%TD*%
%TA.AperFunction,Conductor*%
%ADD36C,0.200000*%
%TD*%
%TA.AperFunction,Conductor*%
%ADD37C,0.500000*%
%TD*%
G04 APERTURE END LIST*
D10*
%TO.P,D1,1,K*%
%TO.N,Net-(D1-Pad1)*%
X186250000Y-124015000D03*
%TO.P,D1,2,A*%
%TO.N,+3V3*%
X186250000Y-124985000D03*
%TD*%
D11*
%TO.P,SW1,3,C*%
%TO.N,+3V3*%
X155430000Y-111250000D03*
%TO.P,SW1,2,B*%
%TO.N,/SW_BOOT0*%
X155430000Y-109750000D03*
%TO.P,SW1,1,A*%
%TO.N,GND*%
X155430000Y-106750000D03*
D12*
%TO.P,SW1,*%
%TO.N,*%
X154780000Y-112650000D03*
X152570000Y-105350000D03*
X152570000Y-112650000D03*
X154780000Y-105350000D03*
%TD*%
D13*
%TO.P,Y1,1,1*%
%TO.N,/HSE_IN*%
X157650000Y-113500000D03*
%TO.P,Y1,2,2*%
%TO.N,GND*%
X157650000Y-115700000D03*
%TO.P,Y1,3,3*%
%TO.N,/HSE_OUT*%
X159350000Y-115700000D03*
%TO.P,Y1,4,4*%
%TO.N,GND*%
X159350000Y-113500000D03*
%TD*%
D14*
%TO.P,C8,1*%
%TO.N,/HSE_OUT*%
X161000000Y-116080000D03*
%TO.P,C8,2*%
%TO.N,GND*%
X161000000Y-115120000D03*
%TD*%
D15*
%TO.P,J3,1,Pin_1*%
%TO.N,+3V3*%
X181800000Y-100500000D03*
D16*
%TO.P,J3,2,Pin_2*%
%TO.N,/SWDIO*%
X179260000Y-100500000D03*
%TO.P,J3,3,Pin_3*%
%TO.N,/SWCLK*%
X176720000Y-100500000D03*
%TO.P,J3,4,Pin_4*%
%TO.N,GND*%
X174180000Y-100500000D03*
%TD*%
D14*
%TO.P,C6,1*%
%TO.N,+3V3*%
X163000000Y-112480000D03*
%TO.P,C6,2*%
%TO.N,GND*%
X163000000Y-111520000D03*
%TD*%
D17*
%TO.P,R4,1*%
%TO.N,/SW_BOOT0*%
X158490000Y-106000000D03*
%TO.P,R4,2*%
%TO.N,/BOOT0*%
X159510000Y-106000000D03*
%TD*%
D14*
%TO.P,C4,1*%
%TO.N,/HSE_IN*%
X161000000Y-114060000D03*
%TO.P,C4,2*%
%TO.N,GND*%
X161000000Y-113100000D03*
%TD*%
D18*
%TO.P,R5,2*%
%TO.N,/USB_D+*%
X178750000Y-112250000D03*
%TO.P,R5,1*%
%TO.N,+3V3*%
X178750000Y-111230000D03*
%TD*%
D19*
%TO.P,C1,2*%
%TO.N,GND*%
X178950000Y-118500000D03*
%TO.P,C1,1*%
%TO.N,VBUS*%
X177050000Y-118500000D03*
%TD*%
D20*
%TO.P,C9,2*%
%TO.N,GND*%
X171520000Y-121500000D03*
%TO.P,C9,1*%
%TO.N,+3V3*%
X172480000Y-121500000D03*
%TD*%
D21*
%TO.P,C2,2*%
%TO.N,GND*%
X183000000Y-123050000D03*
%TO.P,C2,1*%
%TO.N,+3V3*%
X183000000Y-124950000D03*
%TD*%
D22*
%TO.P,C7,2*%
%TO.N,GND*%
X175000000Y-113480000D03*
%TO.P,C7,1*%
%TO.N,+3V3*%
X175000000Y-112520000D03*
%TD*%
D23*
%TO.P,U1,3,VI*%
%TO.N,VBUS*%
X175700000Y-120850000D03*
D24*
%TO.P,U1,2,VO*%
%TO.N,+3V3*%
X178000000Y-127150000D03*
D23*
X178000000Y-120850000D03*
%TO.P,U1,1,GND*%
%TO.N,GND*%
X180300000Y-120850000D03*
%TD*%
D17*
%TO.P,R1,1*%
%TO.N,Net-(D1-Pad1)*%
X185990000Y-121500000D03*
%TO.P,R1,2*%
%TO.N,GND*%
X187010000Y-121500000D03*
%TD*%
D20*
%TO.P,C12,1*%
%TO.N,+3.3VA*%
X162960000Y-120000000D03*
%TO.P,C12,2*%
%TO.N,GND*%
X162000000Y-120000000D03*
%TD*%
D25*
%TO.P,FB1,1*%
%TO.N,+3.3VA*%
X164500000Y-120000000D03*
%TO.P,FB1,2*%
%TO.N,+3V3*%
X164500000Y-121575000D03*
%TD*%
D26*
%TO.P,C13,1*%
%TO.N,+3V3*%
X162040000Y-121500000D03*
%TO.P,C13,2*%
%TO.N,GND*%
X163000000Y-121500000D03*
%TD*%
D15*
%TO.P,J1,1,Pin_1*%
%TO.N,+3V3*%
X164200000Y-129250000D03*
D16*
%TO.P,J1,2,Pin_2*%
%TO.N,/I2C2_SCL*%
X166740000Y-129250000D03*
%TO.P,J1,3,Pin_3*%
%TO.N,/I2C2_SDA*%
X169280000Y-129250000D03*
%TO.P,J1,4,Pin_4*%
%TO.N,GND*%
X171820000Y-129250000D03*
%TD*%
D26*
%TO.P,C10,2*%
%TO.N,GND*%
X166980000Y-109500000D03*
%TO.P,C10,1*%
%TO.N,+3V3*%
X166020000Y-109500000D03*
%TD*%
D14*
%TO.P,C11,1*%
%TO.N,+3.3VA*%
X163000000Y-116980000D03*
%TO.P,C11,2*%
%TO.N,GND*%
X163000000Y-116020000D03*
%TD*%
D27*
%TO.P,C3,1*%
%TO.N,+3V3*%
X165725000Y-107000000D03*
%TO.P,C3,2*%
%TO.N,GND*%
X167275000Y-107000000D03*
%TD*%
D16*
%TO.P,J2,4,Pin_4*%
%TO.N,GND*%
X160180000Y-100500000D03*
%TO.P,J2,3,Pin_3*%
%TO.N,/UART1_RX*%
X162720000Y-100500000D03*
%TO.P,J2,2,Pin_2*%
%TO.N,/UART1_TX*%
X165260000Y-100500000D03*
D15*
%TO.P,J2,1,Pin_1*%
%TO.N,+3V3*%
X167800000Y-100500000D03*
%TD*%
D28*
%TO.P,R2,1*%
%TO.N,+3V3*%
X168010000Y-124750000D03*
%TO.P,R2,2*%
%TO.N,/I2C2_SCL*%
X166990000Y-124750000D03*
%TD*%
D29*
%TO.P,U2,1,VBAT*%
%TO.N,+3V3*%
X164837500Y-112750000D03*
%TO.P,U2,2,PC13*%
%TO.N,unconnected-(U2-Pad2)*%
X164837500Y-113250000D03*
%TO.P,U2,3,PC14*%
%TO.N,unconnected-(U2-Pad3)*%
X164837500Y-113750000D03*
%TO.P,U2,4,PC15*%
%TO.N,unconnected-(U2-Pad4)*%
X164837500Y-114250000D03*
%TO.P,U2,5,PD0*%
%TO.N,/HSE_IN*%
X164837500Y-114750000D03*
%TO.P,U2,6,PD1*%
%TO.N,/HSE_OUT*%
X164837500Y-115250000D03*
%TO.P,U2,7,NRST*%
%TO.N,/NRST*%
X164837500Y-115750000D03*
%TO.P,U2,8,VSSA*%
%TO.N,GND*%
X164837500Y-116250000D03*
%TO.P,U2,9,VDDA*%
%TO.N,+3.3VA*%
X164837500Y-116750000D03*
%TO.P,U2,10,PA0*%
%TO.N,unconnected-(U2-Pad10)*%
X164837500Y-117250000D03*
%TO.P,U2,11,PA1*%
%TO.N,unconnected-(U2-Pad11)*%
X164837500Y-117750000D03*
%TO.P,U2,12,PA2*%
%TO.N,unconnected-(U2-Pad12)*%
X164837500Y-118250000D03*
D30*
%TO.P,U2,13,PA3*%
%TO.N,unconnected-(U2-Pad13)*%
X166250000Y-119662500D03*
%TO.P,U2,14,PA4*%
%TO.N,unconnected-(U2-Pad14)*%
X166750000Y-119662500D03*
%TO.P,U2,15,PA5*%
%TO.N,unconnected-(U2-Pad15)*%
X167250000Y-119662500D03*
%TO.P,U2,16,PA6*%
%TO.N,unconnected-(U2-Pad16)*%
X167750000Y-119662500D03*
%TO.P,U2,17,PA7*%
%TO.N,unconnected-(U2-Pad17)*%
X168250000Y-119662500D03*
%TO.P,U2,18,PB0*%
%TO.N,unconnected-(U2-Pad18)*%
X168750000Y-119662500D03*
%TO.P,U2,19,PB1*%
%TO.N,unconnected-(U2-Pad19)*%
X169250000Y-119662500D03*
%TO.P,U2,20,PB2*%
%TO.N,unconnected-(U2-Pad20)*%
X169750000Y-119662500D03*
%TO.P,U2,21,PB10*%
%TO.N,/I2C2_SCL*%
X170250000Y-119662500D03*
%TO.P,U2,22,PB11*%
%TO.N,/I2C2_SDA*%
X170750000Y-119662500D03*
%TO.P,U2,23,VSS*%
%TO.N,GND*%
X171250000Y-119662500D03*
%TO.P,U2,24,VDD*%
%TO.N,+3V3*%
X171750000Y-119662500D03*
D29*
%TO.P,U2,25,PB12*%
%TO.N,unconnected-(U2-Pad25)*%
X173162500Y-118250000D03*
%TO.P,U2,26,PB13*%
%TO.N,unconnected-(U2-Pad26)*%
X173162500Y-117750000D03*
%TO.P,U2,27,PB14*%
%TO.N,unconnected-(U2-Pad27)*%
X173162500Y-117250000D03*
%TO.P,U2,28,PB15*%
%TO.N,unconnected-(U2-Pad28)*%
X173162500Y-116750000D03*
%TO.P,U2,29,PA8*%
%TO.N,unconnected-(U2-Pad29)*%
X173162500Y-116250000D03*
%TO.P,U2,30,PA9*%
%TO.N,unconnected-(U2-Pad30)*%
X173162500Y-115750000D03*
%TO.P,U2,31,PA10*%
%TO.N,unconnected-(U2-Pad31)*%
X173162500Y-115250000D03*
%TO.P,U2,32,PA11*%
%TO.N,/USB_D-*%
X173162500Y-114750000D03*
%TO.P,U2,33,PA12*%
%TO.N,/USB_D+*%
X173162500Y-114250000D03*
%TO.P,U2,34,PA13*%
%TO.N,/SWDIO*%
X173162500Y-113750000D03*
%TO.P,U2,35,VSS*%
%TO.N,GND*%
X173162500Y-113250000D03*
%TO.P,U2,36,VDD*%
%TO.N,+3V3*%
X173162500Y-112750000D03*
D30*
%TO.P,U2,37,PA14*%
%TO.N,/SWCLK*%
X171750000Y-111337500D03*
%TO.P,U2,38,PA15*%
%TO.N,unconnected-(U2-Pad38)*%
X171250000Y-111337500D03*
%TO.P,U2,39,PB3*%
%TO.N,unconnected-(U2-Pad39)*%
X170750000Y-111337500D03*
%TO.P,U2,40,PB4*%
%TO.N,unconnected-(U2-Pad40)*%
X170250000Y-111337500D03*
%TO.P,U2,41,PB5*%
%TO.N,unconnected-(U2-Pad41)*%
X169750000Y-111337500D03*
%TO.P,U2,42,PB6*%
%TO.N,/UART1_TX*%
X169250000Y-111337500D03*
%TO.P,U2,43,PB7*%
%TO.N,/UART1_RX*%
X168750000Y-111337500D03*
%TO.P,U2,44,BOOT0*%
%TO.N,/BOOT0*%
X168250000Y-111337500D03*
%TO.P,U2,45,PB8*%
%TO.N,unconnected-(U2-Pad45)*%
X167750000Y-111337500D03*
%TO.P,U2,46,PB9*%
%TO.N,unconnected-(U2-Pad46)*%
X167250000Y-111337500D03*
%TO.P,U2,47,VSS*%
%TO.N,GND*%
X166750000Y-111337500D03*
%TO.P,U2,48,VDD*%
%TO.N,+3V3*%
X166250000Y-111337500D03*
%TD*%
D17*
%TO.P,R3,2*%
%TO.N,/I2C2_SDA*%
X170510000Y-124750000D03*
%TO.P,R3,1*%
%TO.N,+3V3*%
X169490000Y-124750000D03*
%TD*%
D26*
%TO.P,C5,2*%
%TO.N,GND*%
X167480000Y-121500000D03*
%TO.P,C5,1*%
%TO.N,/NRST*%
X166520000Y-121500000D03*
%TD*%
D31*
%TO.P,J4,6,Shield*%
%TO.N,unconnected-(J4-Pad6)*%
X186395000Y-119230000D03*
D32*
X190195000Y-119380000D03*
X190195000Y-111630000D03*
D31*
X186395000Y-111780000D03*
D33*
%TO.P,J4,5,GND*%
%TO.N,GND*%
X186345000Y-114205000D03*
%TO.P,J4,4,ID*%
%TO.N,unconnected-(J4-Pad4)*%
X186345000Y-114855000D03*
%TO.P,J4,3,D+*%
%TO.N,/USB_D+*%
X186345000Y-115505000D03*
%TO.P,J4,2,D-*%
%TO.N,/USB_D-*%
X186345000Y-116155000D03*
%TO.P,J4,1,VBUS*%
%TO.N,VBUS*%
X186345000Y-116805000D03*
%TD*%
D34*
%TO.N,GND*%
X161750000Y-114750000D03*
X157750000Y-117000000D03*
X159250000Y-112000000D03*
%TO.N,+3V3*%
X166040500Y-127000000D03*
X167500000Y-127000000D03*
X171449500Y-123500000D03*
X170050500Y-123500000D03*
%TO.N,GND*%
X184750000Y-123000000D03*
X180750000Y-122500000D03*
X179750000Y-122500000D03*
X180250000Y-119000000D03*
X180250000Y-118000000D03*
X166750000Y-112500000D03*
X162750000Y-110750000D03*
X157000000Y-106750000D03*
X176000000Y-113625499D03*
X184250000Y-113500000D03*
X187250000Y-122500000D03*
X168380559Y-121380559D03*
X162000000Y-119000000D03*
X162500000Y-122500000D03*
X166250000Y-116250000D03*
X171250000Y-118000000D03*
X161000000Y-112250000D03*
%TD*%
D35*
%TO.N,+3V3*%
X186250000Y-125287500D02*
X188212500Y-125287500D01*
X188212500Y-125287500D02*
X188750000Y-124750000D01*
X188750000Y-124750000D02*
X188750000Y-107450000D01*
X188750000Y-107450000D02*
X185650000Y-104350000D01*
X184800000Y-124950000D02*
X185912500Y-124950000D01*
X185912500Y-124950000D02*
X186250000Y-125287500D01*
D36*
%TO.N,/USB_D+*%
X173187499Y-114274999D02*
X178725001Y-114274999D01*
X178725001Y-114274999D02*
X184290977Y-114274999D01*
D35*
X178750000Y-112250000D02*
X178750000Y-114250000D01*
X178750000Y-114250000D02*
X178725001Y-114274999D01*
%TO.N,+3V3*%
X178750000Y-111240000D02*
X178760000Y-111240000D01*
X185650000Y-104350000D02*
X181800000Y-100500000D01*
X178760000Y-111240000D02*
X185650000Y-104350000D01*
X175000000Y-112520000D02*
X175000000Y-112500000D01*
X175000000Y-112500000D02*
X176260000Y-111240000D01*
X176260000Y-111240000D02*
X178750000Y-111240000D01*
%TO.N,Net-(D1-Pad1)*%
X186250000Y-123712500D02*
X186250000Y-121760000D01*
X186250000Y-121760000D02*
X185990000Y-121500000D01*
D37*
%TO.N,/SW_BOOT0*%
X156750000Y-109750000D02*
X158500000Y-108000000D01*
X155430000Y-109750000D02*
X156750000Y-109750000D01*
X158500000Y-108000000D02*
X158500000Y-106010000D01*
X158500000Y-106010000D02*
X158490000Y-106000000D01*
%TO.N,GND*%
X161380000Y-115120000D02*
X161750000Y-114750000D01*
X161000000Y-115120000D02*
X161380000Y-115120000D01*
%TO.N,+3V3*%
X164500000Y-121575000D02*
X164500000Y-124250000D01*
X164500000Y-124250000D02*
X164500000Y-126750000D01*
X162040000Y-121500000D02*
X161700489Y-121839511D01*
X161700489Y-121839511D02*
X161700489Y-123450489D01*
X161700489Y-123450489D02*
X162500000Y-124250000D01*
X162500000Y-124250000D02*
X164500000Y-124250000D01*
%TO.N,+3.3VA*%
X162960000Y-120000000D02*
X162960000Y-117020000D01*
X162960000Y-117020000D02*
X163000000Y-116980000D01*
X162960000Y-120000000D02*
X164500000Y-120000000D01*
%TO.N,GND*%
X157650000Y-116900000D02*
X157750000Y-117000000D01*
X157650000Y-115700000D02*
X157650000Y-116900000D01*
X159350000Y-112100000D02*
X159250000Y-112000000D01*
X159350000Y-113500000D02*
X159350000Y-112100000D01*
%TO.N,+3V3*%
X161750000Y-107000000D02*
X165725000Y-107000000D01*
X161250000Y-107000000D02*
X161750000Y-107000000D01*
X161750000Y-107000000D02*
X161750000Y-111413707D01*
X161750000Y-111413707D02*
X162816293Y-112480000D01*
X162816293Y-112480000D02*
X163000000Y-112480000D01*
X157000000Y-111250000D02*
X161250000Y-107000000D01*
X155430000Y-111250000D02*
X157000000Y-111250000D01*
X158250000Y-127000000D02*
X156000000Y-124750000D01*
X164750000Y-127000000D02*
X158250000Y-127000000D01*
X156000000Y-124750000D02*
X156000000Y-111820000D01*
X156000000Y-111820000D02*
X155430000Y-111250000D01*
X164500000Y-126750000D02*
X164750000Y-127000000D01*
X167800000Y-100200000D02*
X169000000Y-99000000D01*
X167800000Y-100500000D02*
X167800000Y-100200000D01*
X169000000Y-99000000D02*
X180300000Y-99000000D01*
X180300000Y-99000000D02*
X181800000Y-100500000D01*
D35*
X184800000Y-126700000D02*
X184800000Y-124950000D01*
X184800000Y-129200000D02*
X184800000Y-126700000D01*
X175000000Y-112520000D02*
X175020000Y-112500000D01*
D37*
X166040500Y-127000000D02*
X164750000Y-127000000D01*
X164750000Y-127000000D02*
X164200000Y-127550000D01*
X164200000Y-127550000D02*
X164200000Y-129250000D01*
X168010000Y-126740000D02*
X167750000Y-127000000D01*
X168010000Y-124750000D02*
X168010000Y-126740000D01*
X167750000Y-127000000D02*
X167500000Y-127000000D01*
X169490000Y-124750000D02*
X169490000Y-124060500D01*
X169490000Y-124060500D02*
X170050500Y-123500000D01*
X168010000Y-124750000D02*
X169490000Y-124750000D01*
D35*
X174250000Y-123500000D02*
X174250000Y-129250000D01*
X174250000Y-122750000D02*
X174250000Y-123500000D01*
X174250000Y-123500000D02*
X171449500Y-123500000D01*
X183000000Y-124950000D02*
X184800000Y-124950000D01*
X172480000Y-121500000D02*
X173000000Y-121500000D01*
X173000000Y-121500000D02*
X174250000Y-122750000D01*
X175500000Y-130500000D02*
X181750000Y-130500000D01*
X183000000Y-129250000D02*
X184750000Y-129250000D01*
X174250000Y-129250000D02*
X175500000Y-130500000D01*
X181750000Y-130500000D02*
X183000000Y-129250000D01*
X184750000Y-129250000D02*
X184800000Y-129200000D01*
%TO.N,VBUS*%
X177050000Y-117200000D02*
X177500000Y-116750000D01*
X177050000Y-118500000D02*
X177050000Y-117200000D01*
X177500000Y-116750000D02*
X177555000Y-116805000D01*
X177555000Y-116805000D02*
X186345000Y-116805000D01*
X175700000Y-120850000D02*
X175700000Y-119850000D01*
X175700000Y-119850000D02*
X177050000Y-118500000D01*
%TO.N,+3V3*%
X178000000Y-127150000D02*
X180800000Y-127150000D01*
X180800000Y-127150000D02*
X183000000Y-124950000D01*
X178000000Y-120850000D02*
X178000000Y-127150000D01*
%TO.N,GND*%
X166750000Y-111337500D02*
X166750000Y-112500000D01*
X163000000Y-111000000D02*
X162750000Y-110750000D01*
X163000000Y-111520000D02*
X163000000Y-111000000D01*
X155430000Y-106750000D02*
X157000000Y-106750000D01*
X175854501Y-113480000D02*
X176000000Y-113625499D01*
X175000000Y-113480000D02*
X175854501Y-113480000D01*
X184955000Y-114205000D02*
X184250000Y-113500000D01*
X186345000Y-114205000D02*
X184955000Y-114205000D01*
X187010000Y-122260000D02*
X187250000Y-122500000D01*
X187010000Y-121500000D02*
X187010000Y-122260000D01*
X168261118Y-121500000D02*
X168380559Y-121380559D01*
X167480000Y-121500000D02*
X168261118Y-121500000D01*
X162000000Y-120000000D02*
X162000000Y-119000000D01*
X163000000Y-122000000D02*
X162500000Y-122500000D01*
X163000000Y-121500000D02*
X163000000Y-122000000D01*
%TO.N,/NRST*%
X165750000Y-118824639D02*
X165750000Y-121000000D01*
X166550489Y-115550489D02*
X166949511Y-115949511D01*
X165750000Y-121000000D02*
X166250000Y-121500000D01*
X166949511Y-117625128D02*
X165750000Y-118824639D01*
X165960252Y-115550489D02*
X166550489Y-115550489D01*
X165760741Y-115750000D02*
X165960252Y-115550489D01*
X166949511Y-115949511D02*
X166949511Y-117625128D01*
X164837500Y-115750000D02*
X165760741Y-115750000D01*
X166250000Y-121500000D02*
X166520000Y-121500000D01*
%TO.N,GND*%
X164837500Y-116250000D02*
X166250000Y-116250000D01*
X171250000Y-119662500D02*
X171250000Y-118000000D01*
D37*
X161000000Y-113100000D02*
X161000000Y-112250000D01*
D35*
%TO.N,/I2C2_SDA*%
X170510000Y-124750000D02*
X170510000Y-128020000D01*
X170510000Y-128020000D02*
X169280000Y-129250000D01*
%TO.N,/I2C2_SCL*%
X166990000Y-124750000D02*
X166740000Y-125000000D01*
X166740000Y-125000000D02*
X166740000Y-129250000D01*
X170250000Y-119662500D02*
X170250000Y-120500361D01*
X170250000Y-120500361D02*
X166990000Y-123760361D01*
X166990000Y-123760361D02*
X166990000Y-124750000D01*
%TO.N,/I2C2_SDA*%
X170750000Y-119662500D02*
X170750000Y-124510000D01*
X170750000Y-124510000D02*
X170510000Y-124750000D01*
%TO.N,+3V3*%
X171750000Y-119662500D02*
X172480000Y-120392500D01*
X172480000Y-120392500D02*
X172480000Y-121500000D01*
%TO.N,GND*%
X171250000Y-119662500D02*
X171250000Y-121269519D01*
X171250000Y-121269519D02*
X171480481Y-121500000D01*
%TO.N,/UART1_TX*%
X169250000Y-111337500D02*
X169250000Y-110499639D01*
X170000000Y-109749639D02*
X170000361Y-109749639D01*
X169250000Y-110499639D02*
X170000000Y-109749639D01*
X170000361Y-109749639D02*
X170500000Y-109250000D01*
X170500000Y-109250000D02*
X170500000Y-103250000D01*
X165260000Y-102260000D02*
X165260000Y-100500000D01*
X170500000Y-103250000D02*
X170000000Y-102750000D01*
X170000000Y-102750000D02*
X165750000Y-102750000D01*
X165750000Y-102750000D02*
X165260000Y-102260000D01*
%TO.N,/UART1_RX*%
X168250000Y-104250000D02*
X163000000Y-104250000D01*
X169500000Y-109500000D02*
X169500000Y-105500000D01*
X169500000Y-105500000D02*
X168250000Y-104250000D01*
X162720000Y-103970000D02*
X162720000Y-100500000D01*
X163000000Y-104250000D02*
X162720000Y-103970000D01*
%TO.N,/BOOT0*%
X168250000Y-111337500D02*
X168250000Y-105750000D01*
X168250000Y-105750000D02*
X167750000Y-105250000D01*
X167750000Y-105250000D02*
X160260000Y-105250000D01*
X160260000Y-105250000D02*
X159510000Y-106000000D01*
%TO.N,/UART1_RX*%
X168750000Y-110250000D02*
X169500000Y-109500000D01*
X168750000Y-111337500D02*
X168750000Y-110250000D01*
%TO.N,/SWDIO*%
X173162500Y-113750000D02*
X172324639Y-113750000D01*
X172324639Y-113750000D02*
X172000000Y-113425361D01*
X172000000Y-113425361D02*
X172000000Y-112425361D01*
X172000000Y-112425361D02*
X179260000Y-105165361D01*
X179260000Y-105165361D02*
X179260000Y-100500000D01*
%TO.N,/SWCLK*%
X171750000Y-111337500D02*
X171750000Y-105470000D01*
X171750000Y-105470000D02*
X176720000Y-100500000D01*
D36*
%TO.N,/USB_D+*%
X173162500Y-114250000D02*
X173187499Y-114274999D01*
X184290977Y-114274999D02*
X185520978Y-115505000D01*
%TO.N,/USB_D-*%
X186219511Y-116029511D02*
X186345000Y-116155000D01*
%TO.N,/USB_D+*%
X185520978Y-115505000D02*
X186345000Y-115505000D01*
%TO.N,/USB_D-*%
X173162500Y-114750000D02*
X173187499Y-114725001D01*
X173187499Y-114725001D02*
X184104596Y-114725001D01*
X184104596Y-114725001D02*
X185409106Y-116029511D01*
X185409106Y-116029511D02*
X186219511Y-116029511D01*
D35*
%TO.N,/HSE_IN*%
X161000000Y-114060000D02*
X160510489Y-114549511D01*
X160510489Y-114549511D02*
X158549511Y-114549511D01*
X158549511Y-114549511D02*
X157650000Y-113650000D01*
X157650000Y-113650000D02*
X157650000Y-113500000D01*
%TO.N,/HSE_OUT*%
X161000000Y-116080000D02*
X159730000Y-116080000D01*
X159730000Y-116080000D02*
X159350000Y-115700000D01*
%TO.N,/HSE_IN*%
X163750000Y-114750000D02*
X163000000Y-114000000D01*
X164837500Y-114750000D02*
X163750000Y-114750000D01*
X163000000Y-114000000D02*
X161060000Y-114000000D01*
X161060000Y-114000000D02*
X161000000Y-114060000D01*
%TO.N,/HSE_OUT*%
X164837500Y-115250000D02*
X162250000Y-115250000D01*
X162250000Y-115250000D02*
X161420000Y-116080000D01*
X161420000Y-116080000D02*
X161000000Y-116080000D01*
%TO.N,GND*%
X173162500Y-113250000D02*
X174000361Y-113250000D01*
X174000361Y-113250000D02*
X174230361Y-113480000D01*
X174230361Y-113480000D02*
X175000000Y-113480000D01*
%TO.N,+3V3*%
X173750000Y-112750000D02*
X174000000Y-112500000D01*
X173162500Y-112750000D02*
X173750000Y-112750000D01*
X174000000Y-112500000D02*
X174980000Y-112500000D01*
X174980000Y-112500000D02*
X175000000Y-112520000D01*
%TO.N,GND*%
X164837500Y-116250000D02*
X163999639Y-116250000D01*
X163769639Y-116020000D02*
X163000000Y-116020000D01*
X163999639Y-116250000D02*
X163769639Y-116020000D01*
%TO.N,+3.3VA*%
X164837500Y-116750000D02*
X163999639Y-116750000D01*
X163999639Y-116750000D02*
X163769639Y-116980000D01*
X163769639Y-116980000D02*
X163000000Y-116980000D01*
%TO.N,+3V3*%
X164837500Y-112750000D02*
X163270000Y-112750000D01*
X163270000Y-112750000D02*
X163000000Y-112480000D01*
%TO.N,GND*%
X166980000Y-109500000D02*
X166980000Y-109020000D01*
X166980000Y-109020000D02*
X167500000Y-108500000D01*
X167500000Y-108500000D02*
X167500000Y-107225000D01*
X167500000Y-107225000D02*
X167275000Y-107000000D01*
%TO.N,+3V3*%
X166020000Y-109500000D02*
X166020000Y-109020000D01*
X166020000Y-109020000D02*
X165500000Y-108500000D01*
X165500000Y-108500000D02*
X165500000Y-107225000D01*
X165500000Y-107225000D02*
X165725000Y-107000000D01*
%TO.N,GND*%
X166750000Y-111337500D02*
X166750000Y-110499639D01*
X166750000Y-110499639D02*
X166980000Y-110269639D01*
X166980000Y-110269639D02*
X166980000Y-109500000D01*
%TO.N,+3V3*%
X166250000Y-110750000D02*
X166000000Y-110500000D01*
X166250000Y-111337500D02*
X166250000Y-110750000D01*
X166000000Y-110500000D02*
X166000000Y-109520000D01*
X166000000Y-109520000D02*
X166020000Y-109500000D01*
%TD*%
%TA.AperFunction,Conductor*%
%TO.N,GND*%
G36*
X180771177Y-117275185D02*
G01*
X180791819Y-117291819D01*
X181463681Y-117963681D01*
X181497166Y-118025004D01*
X181500000Y-118051362D01*
X181500000Y-122000000D01*
X182000000Y-122500000D01*
X184712456Y-122500000D01*
X184781239Y-122520826D01*
X185444783Y-122963189D01*
X185489644Y-123016754D01*
X185500000Y-123066363D01*
X185500000Y-123626000D01*
X185480315Y-123693039D01*
X185427511Y-123738794D01*
X185376000Y-123750000D01*
X179801362Y-123750000D01*
X179734323Y-123730315D01*
X179713681Y-123713681D01*
X179286319Y-123286319D01*
X179252834Y-123224996D01*
X179250000Y-123198638D01*
X179250000Y-119500000D01*
X178326636Y-119500000D01*
X178259597Y-119480315D01*
X178215727Y-119431454D01*
X178013091Y-119026182D01*
X178000000Y-118970728D01*
X178000000Y-118051362D01*
X178019685Y-117984323D01*
X178036319Y-117963681D01*
X178708181Y-117291819D01*
X178769504Y-117258334D01*
X178795862Y-117255500D01*
X180704138Y-117255500D01*
X180771177Y-117275185D01*
G37*
%TD.AperFunction*%
%TD*%
M02*
